<?xml version="1.0" encoding="UTF-8"?> <!-- Generator: Adobe Illustrator 23.0.4, SVG Export Plug-In . SVG Version: 6.00 Build 0) --> <svg xmlns="http://www.w3.org/2000/svg" xmlns:xlink="http://www.w3.org/1999/xlink" version="1.1" x="0px" y="0px" viewBox="0 0 378.1 462.8" style="enable-background:new 0 0 378.1 462.8;" xml:space="preserve"> <style type="text/css"> .st0{fill:#3E2713;} .st1{opacity:0.15;} .st2{fill:#937640;} .st3{fill:#977355;} .st4{opacity:0.3;fill:#977355;} .st5{fill:#8D843F;} .st6{opacity:0.15;fill:#C49B4B;} </style> <g id="PRINT_4"> </g> <g id="PRINT_3"> </g> <g id="PRINT_2"> </g> <g id="PRINT_1"> <g> <g> <path class="st0" d="M378.1,19.7c-14.4,4-28.1,13.2-36.8,25.3c-17.8,24.7-20.3,57.3-20.4,85.9c0,10.7,0.2,21.8,0.4,32.5 c1,53,1.9,107.7-24.5,153c-12,20.4-29,37.6-45.4,54.3c-13,13.2-26.5,26.8-37.5,42c-10.9,15-19.3,32.1-25.1,50.2h0.5 c5.7-18,14.2-35,25-49.9c10.9-15.2,24.4-28.8,37.4-41.9c16.5-16.6,33.5-33.9,45.5-54.4c26.5-45.4,25.6-100.2,24.6-153.2 c-0.2-10.7-0.4-21.7-0.4-32.4c0.1-28.6,2.6-61.1,20.3-85.6c8.6-11.9,22.1-21.1,36.4-25V19.7z"></path> <path class="st0" d="M191.9,418.8c-1.9,0-1.9,3,0,3C193.9,421.8,193.9,418.8,191.9,418.8z"></path> <path class="st0" d="M255.8,390.3c-1.9,0-1.9,3,0,3C257.7,393.3,257.7,390.3,255.8,390.3z"></path> <path class="st0" d="M309.8,233.1c-1.9,0-1.9,3,0,3C311.8,236.1,311.8,233.1,309.8,233.1z"></path> <path class="st0" d="M334.4,132.9c-1.9,0-1.9,3,0,3C336.3,135.9,336.3,132.9,334.4,132.9z"></path> </g> <g class="st1"> <path class="st5" d="M295.3,299.4c2.1-2.7,4.3-5.4,6.5-8c1.1-1.3,2.2-2.6,3.3-3.9c1.1-1.3,2.2-2.6,3.3-3.9 c4.3-5.2,8.6-10.1,12.6-15l-9.5,11.6c2.4-2.9,4.7-5.5,7.2-7.9c1.2-1.2,2.5-2.4,3.8-3.7c1.3-1.2,2.6-2.5,4.1-3.8 c-0.2,1.3-1.3,2.8-2.3,4.2c-1,1.4-1.9,2.6-1.5,3.7c-3,3.5-6.1,6.9-9.3,10.2c-3.2,3.3-6.4,6.6-9.9,9.6c-3.4,3.1-6.9,6.1-10.3,9.1 c-1.7,1.5-3.4,3-5.2,4.4c-1.8,1.4-3.5,2.8-5.3,4.2C284.7,302.3,292,303.2,295.3,299.4z"></path> <path class="st5" d="M341.1,250.5c-1.1,1.5-2.2,2.9-3.4,4.3C338.8,253.2,339.9,251.7,341.1,250.5z"></path> <path class="st5" d="M217.8,395.8c-1.5,1.5-3.1,3.1-4.6,4.4C214.5,398.6,216.1,397.2,217.8,395.8z"></path> <path class="st5" d="M286,324c-0.5,1-1.1,2-1.8,3c-1.6,1.4-3.2,2.9-4.8,4.3c-1.6,1.4-3.3,2.8-4.9,4.2c-3.3,2.8-6.7,5.6-10.1,8.4 c3.6-3.1,7-6.8,10.4-10.3c0.9-0.9,1.8-1.7,2.6-2.6c0.9-0.9,1.8-1.7,2.7-2.5C282,326.9,283.9,325.3,286,324z"></path> <path class="st5" d="M295.3,320.2c1.5-1.6,3.1-3.1,4.6-4.7c1.5-1.6,3.1-3.1,4.7-4.5c3.2-2.9,6.7-5.6,10.2-8 c-3.4,2.5-6.7,5.3-9.9,8.2c-1.6,1.5-3.2,3-4.8,4.5C298.6,317.2,296.9,318.7,295.3,320.2z"></path> <path class="st5" d="M177.9,453.4c0.2,0.3,0.3,0.6,0.2,0.9c-0.2,0.2-0.3,0.5-0.3,0.8c-3.3,1.7-6.6,3.2-9.9,4.8 c0.6-0.7,0.9-1.7,1.7-2.2C173.2,456,174.9,457,177.9,453.4z"></path> <path class="st5" d="M219.5,394.2l0.1-0.3c0.5-0.5,1-1.1,1.5-1.6c0.1,0,0.2,0,0.3-0.1C220.8,393,220.2,393.6,219.5,394.2z"></path> <path class="st5" d="M181.8,450.9c0.5,0.5,0.9,1,1.5,1.3c-1.8,1-3.6,1.9-5.5,2.9c0.1-0.3,0.2-0.5,0.3-0.8 C178.9,453.2,181,452.5,181.8,450.9z"></path> <path class="st5" d="M222.7,427.6c1-0.9,1-2.7,1.3-3.4c3.2-1.4,6.5-2.8,10-4.9c0.3-0.7,1.3-1.5,1.8-2.9c0.9,0,1.9-0.1,2.8-0.3 c-3.5,2.7-7.1,5.4-10.7,8.1c-1.8,1.4-3.6,2.7-5.5,4.1c-1.9,1.3-3.8,2.6-5.7,3.9C218.4,430.6,220.5,429.1,222.7,427.6z"></path> <path class="st5" d="M271.4,385.1c2.3-0.3,4.4-1,6.6-2.1c-4.6,4-9.1,8-13.7,12c-4.7,3.9-9.3,7.8-14.1,11.8l-0.1-0.1 c3.5-3.4,8.5-7,12.7-10.5C267.1,392.5,270.5,388.7,271.4,385.1z"></path> <path class="st5" d="M178.1,454.4c-0.1,0.2-0.2,0.5-0.3,0.8c0,0,0,0,0,0C177.8,454.9,177.9,454.6,178.1,454.4z"></path> <path class="st5" d="M270.3,350.3c0.3-0.3,0.6-0.5,0.8-0.8c-1.9,2.2-3.8,4.4-5.7,6.6C266.7,354.1,268.5,352.2,270.3,350.3z"></path> <path class="st5" d="M293.6,329.7l5.9-6.6l3-3.3l2.9-3.4c5.5-5.2,11.2-10.1,17.3-14.2C313.2,311.6,303.7,320.9,293.6,329.7z"></path> <path class="st5" d="M289.7,370.5c2.2-1.3,4.5-2.5,6.8-3.8c-1.9,1.7-3.8,3.4-5.7,5C290.8,371,290.1,370.8,289.7,370.5z"></path> <path class="st5" d="M253.6,367.8c0.4-0.4,0.9-0.8,1.3-1.2c-0.8,1.3-1.7,2.7-2.5,4C252.6,370,253.2,368.8,253.6,367.8z"></path> <path class="st5" d="M311.3,354c-1.4,1.2-2.8,2.4-4.3,3.7c0.6-1,1.1-2,1.5-3.2C309.5,354.6,310.4,354.4,311.3,354z"></path> <path class="st5" d="M331.4,332.9c1.8-1.9,3.5-3.6,5.3-5.2c-1.9,2.3-3.8,4.6-5.8,6.9C331,333.8,331,333.1,331.4,332.9z"></path> <path class="st5" d="M265.6,358.4c-0.2-3.6,2.3-8.2,3.4-12.2c-7.7,6.4-15.5,12.7-22.9,19.4c-3.7,3.4-7.5,6.6-11.2,10 c-3.7,3.3-7.4,6.7-11.1,10.1c6.1-4.5,12.2-8.7,18.8-11.9c-5.2,4-10.5,8-15.7,12c-2.6,2-5.4,3.9-8.1,5.8c-2.7,1.9-5.4,3.8-8.2,5.7 c-2.7,2.3-5.3,4.7-8.1,6.9c-2.8,2.2-5.5,4.4-8.3,6.6c-5.6,4.4-11.1,8.8-17,12.6c0.6-1.3,1.4-2.5,2.4-3.6 c-3.8,3.1-7.7,6.2-11.7,9.1c-1,1.2-1.9,2.5-2.9,3.7c0.3-0.6,1-1.7,1.5-2.7l-4.6,3.4c-1.6,1.1-3.2,2.1-4.8,3.2 c-3.2,2.1-6.4,4.1-9.6,6.1c-3.2,2-6.3,4-9.6,5.9c-3.2,1.9-6.4,3.7-9.6,5.6c1-0.7,1.1-1.5,1.3-2.2c-0.6,0.5-1.3,0.9-1.9,1.4 c-1.7,1.3-3.4,2.7-5.1,3.8c1.5-1.5,3.3-2.6,5.1-3.8c0.7-0.6,1.4-1.1,2-1.7c0.2-0.6,0.5-1.2,1.7-1.4c3.1-2.6,6.1-4.7,8.7-5.7 c5-1.9,9.2-4.8,13.1-7.8c2-1.5,3.9-2.9,5.9-4.2c2-1.3,3.9-2.6,6-3.5c1.9-1,1.8-0.2,1.3,0.9c0.5-0.3,0.9-0.7,1.4-1 c2.3-2.8,4.6-5.4,7.5-7.6c3.3-2.2,6.5-4.4,9.7-6.7l1.8-1.4l-0.8,0.8c8.2-5.8,16.5-11.1,24.5-16.9c4.4-3.9,8.8-7.7,13.2-11.6 c-4.3,3.1-8.7,6.3-13.1,9.5c-4.4,3.1-8.7,6.3-13.4,8.9c1.2-1.4,2.4-2.7,3.7-4.1c1.2-1.4,2.5-2.8,3.9-4.1c2.7-2.7,5.5-5.3,8.5-7.8 c-4,3-8.1,6.1-12.1,9.2c-3.4,2-6.8,3.8-9.7,4.4c4.2-2.7,7.5-5.2,10-8.2c-3.4,2.5-7,4.8-10.6,7.2c-3.6,2.3-7.3,4.7-10.9,7.1 c3.9-2.7,7.7-5.9,11.5-8.9c1.9-1.5,3.9-3,5.9-4.4c2-1.4,4.1-2.7,6.3-3.7c-0.7,1-1.4,1.9-2.1,2.7c6.2-4.5,12.4-8.9,18.4-13.6 c5.9-4.7,11.7-9.5,17.4-14.4c-4.3,1.1-8,4.5-11.8,8.1c-3.8,3.5-7.6,7.3-12.2,8.9c3-2.8,6-5.6,9.1-8.4c3.1-2.8,6.3-5.5,9.5-8.3 c1.6-1.4,3.2-2.7,4.8-4.1c1.6-1.4,3.2-2.8,4.7-4.2c3.2-2.8,6.3-5.7,9.5-8.5c12.5-11.5,24.4-23.8,33.2-37.6 c-4.1,3.9-8.2,7.9-12.4,11.7c-4.3,3.8-8.8,7.3-13.5,10.7c1.8-1.3,3.3-3.2,4.9-5.1c-2.8,2.8-5.6,5.4-8.4,8c-1.4,1.3-2.8,2.7-4.2,4 c-1.4,1.3-2.9,2.7-4.4,4.1c0-0.1,0-0.1,0-0.2c-3.4,3.1-6.9,6-10.4,8.9c-1.8,1.4-3.5,2.9-5.4,4.2c-1.8,1.4-3.7,2.7-5.6,4 c-3.7,2.6-7.5,5.2-11.2,7.7l-2.8,1.9l-2.9,1.8c-1.9,1.2-3.8,2.4-5.7,3.6c1.4-3.9,3.9-5.3,6.5-6.2c2.6-0.9,5.3-1.3,7.2-3 c4.8-4.9,9.9-9.4,14.9-13.9c4.9-4.6,9.7-9,14.2-13.3c-3.6,3.5-7.2,6.9-10.8,10.4c5.4-5.2,10.4-9,16.7-13.4 c-0.7,2.7-5.1,5.1-4.7,7.3c1.9-1.8,3.8-3.5,5.6-5.4c1.8-1.9,3.5-3.8,5.2-5.7c3.4-3.9,6.6-8,9.6-12.2c7.4-10-1.6-9.3-5-5.7 c-8.7,8.8-17.5,16.7-26.6,24.1c-2.2,1.9-4.4,3.8-6.6,5.7c-2.2,1.9-4.3,3.8-6.5,5.7c-4.3,3.8-8.5,7.8-12.5,12.1 c-0.8,1.1-1.7,2.2-2.6,3.3c-0.9,1.1-1.8,2.1-2.7,3.1c-1.9,2.1-3.8,4.1-5.7,6.1c-1.9,2-3.9,4-5.9,5.9c-2,2-4,3.9-6.1,5.8 c-5.3,3.4-12.5,8.3-15,11.2c-1.5,2.1-3,4.1-4.6,6.1c-1.6,2-3.2,4-4.8,6.1c-3.3,4-6.7,8.1-10.3,12c-3.7,3.9-7.5,7.7-11.5,11.5 c-2,1.9-4.1,3.7-6.2,5.6c-2.2,1.8-4.4,3.5-6.6,5.2c-4.2,2.8-8.4,5.7-12.7,8.7c-4.3,2.9-8.7,5.8-13.1,8.7 c-0.2,0.2-0.5,0.3-0.7,0.5h65.6c6.7-4.1,13.8-8.4,15.5-13.4c2.3,0,4.5-0.5,6.7-1.3c2.3-1.6,4.7-3.2,7-4.7l3.5-2.4 c1.2-0.8,2.3-1.6,3.5-2.4c0.1-0.7-0.6-1-0.9-1.3c2.3-1.1,4.8-2,7.2-3c3.8-2.6,7.6-5.1,11.5-7.6c0.7-0.9,1.3-1.9,1.8-3 c0.9,0.2,1.8,0.1,2.8-0.1c1.5-1,2.9-1.9,4.4-2.9c2-1.3,4.6-3.3,7.6-5.7c1.5-1.2,3.1-2.5,4.7-3.9c1.6-1.4,3.2-2.9,4.9-4.4 c0.2-0.8,0.3-1.5,0.7-1.6c2-1.6,3.9-3.2,5.9-4.5c3-2.9,5.8-5.7,8.3-8.1c2.4-2.5,4.4-4.8,5.7-6.5c1.4-2.3-2.1-2.1-5.9-1.7 c-1.9,0.2-4,0.5-5.5,0.5c-1.6,0-2.8-0.1-2.9-0.7c-0.4-4.7,1.8-8.2,5-11.9c3.2-3.7,7.6-7.8,11.4-13.9 C271.7,355.2,266.7,359.3,265.6,358.4z"></path> </g> <g class="st1"> <path class="st3" d="M202.2,18.9c-0.6,1.3-1.9,2.5-2.6,3.2c-0.3,0.2-0.4-0.3-0.7-0.1c-0.4,1-1.6,0.6-1.8,1.6 c-0.9-0.3-2,0.5-3,0.4c-0.4,0.3-0.7,0.6-0.8,1.2c-0.7-0.1,0-1-0.4-1.4c-2.2,0.4-4.2-1.1-6.4-0.6c0.1-0.3,0.5-0.4,0.6-0.6 c0-0.7-0.6-0.3-1.1-0.5c-0.9,0.3-1.1,0.8-1.4,1.6c-0.4-0.1-0.7-0.8-0.4-1.1l-3.2-1.2c-0.6,0.3-1,0.6-1.7,0.8 c-0.3-0.9,1.2-0.2,1-1.2c-0.5-0.4-1.1-0.5-1.5,0.1c-0.9-0.5-1.3-2.5-2.7-1.4c-1.5,0.5-3.5,0-5.1-0.5c0.9-0.1,2.8,0.1,4,0.6 l-0.8-0.6c0.4-0.2,0.7,0.5,1.3,0.5c-0.1-0.1-0.1-0.7-0.6-0.9c-0.2,0.1-0.1,0.3,0,0.5c-0.1-0.2-0.3-0.2-0.4-0.3 c0.2-1,1.3,0.1,1.8-0.7l0.4-1c0.2,0.7-0.1,1.3,0.4,2c0.5-0.3,1.5-0.1,1.2-0.9c-1-0.6-0.3-2.6-0.8-2.8c-0.3-0.4-0.6,0.6-0.9,0 c0.9-0.6,0-2,1-2.6c0.5,0,0.9,0.5,1.2,0.9l0.7-0.9c0.5,0.3,1.3,0.5,1.8,0c0.1-0.3-0.2-0.6,0.1-0.9c1-1.2,2.9-0.2,3.7-0.8 c-0.2-0.6-0.9-0.7-1.2-1.1c1.3,1,1.3-1.6,2.6-0.3c0.3-0.8-1.5-1.2-0.5-2c0.4,0.2,0.6,0.7,0.6,1.2c0.2,0.1,0.5-0.2,0.7-0.3 c-0.1-0.6-1-1-0.3-1.5c0.3,0.4,0.6,0.8,1.1,1c0.3-0.7,1.6-0.2,1.6-1.3c-0.6-0.3-1-1.3-0.4-1.6c0.8,0.3,0.8,2.4,2.1,1.6 c0.3,0.1,0.9-0.1,0.6-0.4c-0.7-0.7-0.3-1.9-0.6-2.7c0.4,0.2,0.9,1.4,1.1,2.2c1,0,1.5,1.2,2.4,1.5c0.7-0.3,0.4-0.9,0.7-1.5 c0.6,1.7,2.3,3.1,3.5,4.7l1-0.4c-0.3,1.3,0.6,1.7,0.7,3c0.4,0.2,0.4-0.3,0.8-0.1c-0.6,0.9,0.8,1.4,0.1,2.1l0.7,0.2 c-0.5,0.5-0.4,1.4,0.3,1.5C202.1,17.3,201.9,18,202.2,18.9z"></path> <polygon class="st4" points="199.2,11.9 199.3,12.1 199.1,12 "></polygon> <path class="st4" d="M198.7,11.7l0-0.4l-0.1,0l0.4-0.2C198.6,11.2,199,11.5,198.7,11.7z"></path> <path class="st4" d="M196.2,11.9c0-0.3,0.2-0.1,0.2,0.1C196.4,12.1,196.2,12,196.2,11.9z"></path> <path class="st4" d="M197.2,9.4c-0.1,0-0.1-0.1-0.1-0.2C197.1,9.3,197.4,9.3,197.2,9.4z"></path> <polygon class="st4" points="196.8,9.7 197.1,9.7 197.1,9.8 "></polygon> <path class="st4" d="M196.1,10.5c0.4-0.3,0.2,0.1,0.1,0.2L196.1,10.5z"></path> <path class="st4" d="M196.2,9.3c-0.7,0-0.3-0.9-0.9-1.1c0.3,0.4,1,0.6,1.1,0.1C195.7,8.9,196.8,8.9,196.2,9.3z"></path> <path class="st4" d="M195.4,10.3c0-0.3,0.3,0,0.5,0C195.5,10.2,195.8,10.6,195.4,10.3z"></path> <polygon class="st4" points="195.7,9.6 195.7,9.8 195.5,9.9 "></polygon> <path class="st4" d="M195.7,9.4l-0.1-0.2L195.7,9.4z"></path> <path class="st4" d="M195.8,8.2l0.2-0.5C196.2,7.9,195.9,8.1,195.8,8.2z"></path> <path class="st4" d="M195.4,9.6c-0.5-0.1-0.6-0.1-0.5-0.3c0.6,0.5,0.2-0.7,0.5-0.3l-0.1,0C195.2,9.2,195.5,9.4,195.4,9.6z"></path> <path class="st4" d="M195,9.9l-0.2-0.3L195,9.9z"></path> <polygon class="st4" points="195,7.8 195.4,7.8 195.2,8 "></polygon> <path class="st4" d="M194.5,9.1c0.1,0.4-0.3-0.1-0.4,0.4c0-0.6,0.1-0.5,0.6-0.6C194.7,9,194.6,9.1,194.5,9.1z"></path> <polygon class="st4" points="194.6,8.1 194.7,8.4 194.5,8.4 "></polygon> <polygon class="st4" points="193.9,9.9 193.8,9.9 194.2,9.8 193.9,9.9 "></polygon> <path class="st4" d="M193.8,7.6c0-0.1,0-0.1,0-0.1l0.4,0.1L193.8,7.6z"></path> <path class="st4" d="M193.4,8.8c0-0.1-0.8,0.6-0.6-0.1l0.2,0.3c0.4-0.2-0.2-0.7-0.2-0.7l0.5,0.4l-0.1,0c0.1-0.2,0.4,0.1,0.5,0.1 C193.6,8.9,193.5,8.7,193.4,8.8z"></path> <polygon class="st4" points="192.4,10.4 192.6,10.3 192.5,10.4 "></polygon> <polygon class="st4" points="192.7,7.7 192.7,7.9 192.4,7.7 "></polygon> <path class="st4" d="M192.5,6.6L192.2,7L192.5,6.6z"></path> <path class="st4" d="M191.5,8.8c-0.4-0.2-0.3-0.2-0.7-0.4C191,8.5,191.6,8.5,191.5,8.8z"></path> <path class="st4" d="M191.2,7.5c0,0.3,0.2,0.1,0.3,0.2L191.2,7.5L191.2,7.5z"></path> <path class="st3" d="M184.8,24.9c-0.3,0-0.4-0.4-0.2-0.5c0.2-0.5,0.5-0.5,0.9-0.5C185.8,24.4,185.1,24.7,184.8,24.9z"></path> <path class="st3" d="M176.7,24.2c-1,0.2-1.7,1.4-2.7,0.8c-0.2-0.1,0-0.7,0.3-0.8c1.4-0.5,3.4-1.9,4.5-0.1 C178.4,24.5,177.4,24.4,176.7,24.2z"></path> <path class="st3" d="M182.5,4.1c-0.3,0-0.3-0.5-0.2-0.6C182.1,4.1,182.9,3.5,182.5,4.1z"></path> <polygon class="st3" points="182.2,2.9 182.5,3 182.3,2.8 "></polygon> <path class="st4" d="M177.9,14.7c0-0.3-0.2-0.5,0-0.8C178.5,13.9,178,14.6,177.9,14.7z"></path> <polygon class="st3" points="175.8,19.2 176.2,19.3 176.1,19.3 "></polygon> <path class="st3" d="M175.9,10.1l0-0.3c0,0.2,0.3,0.3,0.4,0.3l-0.1-0.2c0-0.3,0.3,0,0.5,0.1C176.6,10.2,176.2,10.5,175.9,10.1z"></path> <path class="st3" d="M176.1,9.4l-0.3-0.2L176.1,9.4z"></path> <path class="st3" d="M174.5,8.4c0.5-0.2,0.3,0.2,0.7,0.4l-0.4,0l0.8,1C175,9.5,174.6,8.9,174.5,8.4z"></path> <path class="st3" d="M175.7,7.3c-0.3-0.5-1.1-0.7-1.4-1.3c0.7-0.2,1.8,0.5,2,1.3L175.7,7.3z"></path> <polygon class="st4" points="175.8,7 175.8,6.9 176.1,7.1 175.5,7 "></polygon> <rect x="171.1" y="19.3" transform="matrix(0.3278 -0.9448 0.9448 0.3278 96.659 174.7268)" class="st3" width="0.1" height="0.3"></rect> <path class="st4" d="M175.2,6.7c0.2-0.1-0.3-0.1-0.5-0.4C174.6,6,175.6,6.3,175.2,6.7z"></path> <path class="st3" d="M171,18.6l-0.4,0L171,18.6z"></path> <path class="st3" d="M168.5,19c0.4,0.1,1,0.2,1.1,0.3L168.5,19z"></path> <path class="st3" d="M169.6,18.7l-0.3,0L169.6,18.7z"></path> <path class="st3" d="M170.5,13.5c0.4-0.4-0.5-0.9-0.7-0.8c0.6-0.1,0.9,0.5,1.1,0.8L170.5,13.5z"></path> <polygon class="st3" points="170.3,13.3 170.4,13.4 170.1,13.3 "></polygon> <path class="st3" d="M167.7,19c-0.1-0.2,0-0.3,0-0.4c-0.2,0,0.3,0.7,0.7,0.5C168.2,19.2,167.9,19.1,167.7,19z"></path> <path class="st3" d="M169.1,12.6c-0.1-0.2,0.5-0.4,0.5-0.2l-0.2,0.1c-0.1,0.3,0.3,0.3,0.5,0.4C169.5,13.2,169.3,12.7,169.1,12.6z "></path> <path class="st3" d="M167.1,12.9l-0.1-0.3c0.1-0.3,0.5-0.3,0.7-0.1C168,12.9,167.5,12.9,167.1,12.9z"></path> <path class="st3" d="M166.8,3.4c0.1-0.2,0.3,0,0.4,0.1C167.1,3.6,166.9,3.5,166.8,3.4z"></path> <path class="st3" d="M166.1,3.1l-0.3-0.2L166.1,3.1z"></path> <path class="st3" d="M164.6,2c-0.3,0-0.2-0.5,0-0.5C164.6,1.5,164.8,2,164.6,2z"></path> <path class="st3" d="M150.4,5.6c0-0.1-0.2-0.1-0.3-0.2l1,0.3l-1.1,0L150.4,5.6z"></path> <rect x="148.3" y="4.5" transform="matrix(0.3281 -0.9446 0.9446 0.3281 95.2137 143.3288)" class="st3" width="0.1" height="0.5"></rect> <path class="st3" d="M148,5.7l-0.1-0.2c0.2-0.1,0.3,0,0.5,0.2C148.1,5.8,148.1,5.7,148,5.7z"></path> <path class="st3" d="M146.7,4.2l-0.1,0.2c0.1-0.2-0.2-0.3-0.3-0.3l1.3,0.3C147.2,4.4,147.1,4.3,146.7,4.2z"></path> <path class="st3" d="M145.6,4.1c0.3-0.3,0.3,0.6,0.9,0.5C146.3,4.2,145.5,4.9,145.6,4.1z"></path> <path class="st3" d="M132.6,0.5l-0.3-0.1c0.1-0.4,0.5-0.6,0.7-0.3C133,0.3,132.8,0.5,132.6,0.5z"></path> </g> <path class="st6" d="M378.1,16.5c-4.2,3.4-8.5,6.7-12.8,10c-11,8.3-22.2,16.6-33.9,24.3c-2.9,2-5.9,3.8-8.8,5.7 c-3,1.9-5.9,3.8-9,5.5c-3.1,1.8-6.1,3.5-9.2,5.3c-3.1,1.7-6.3,3.3-9.4,5c-0.9,0.9-2.1,2.1-3.8,3.4c-1.6,1.3-3.6,2.7-6,4.2 c-2.3,1.5-4.9,3.3-7.9,5c-2.9,1.7-6.1,3.6-9.6,5.5c-13.8,7.5-31.4,15.8-50.1,22.8c-18.6,7.1-38.2,13-55.3,17 c-8.5,2.1-16.4,3.5-23.2,4.8c-6.8,1.1-12.6,1.8-16.8,2.2c-1,0.2-2,0.4-3,0.7c-9.2,1.1-19.3,2.5-29.1,4.5c-2.4,0.5-4.8,1-7.2,1.6 c-2.4,0.6-4.7,1.2-7,1.8c-4.5,1.3-8.8,2.8-12.6,4.5c-7,4-14.3,8.8-21.7,13.2c3.5,2.5,6.9,5,9.8,7.4c-7.7-0.1-15.4-0.3-18.4,2.5 c-8.2,3.3-10.1,6.8-9.1,10.9c1,4.1,5,8.7,8.4,14c2.4,2.3,2,5.2,1.9,8.2c-0.1,2.9,0.2,5.9,4.1,8.1c-1.4,0-2.6,0-3.7-0.1 c-1.1-0.1-2.2-0.1-3.2-0.1c-2.1-0.1-4.2-0.2-6.9-0.3c-0.3,2.2,3.9,1.7,7.8,1.5c3.9-0.2,7.3-0.2,5.5,3.5c-5.4-1.5-11.4,1-16.9,0.8 c0.9,3,5.8,3.6,10.3,4.1c4.5,0.6,8.7,1,8.3,3.9c-1.5,0.7-5.5-1.2-9.2-2.5c-3.7-1.3-7.1-1.8-7.7,1.8c-0.2,1.5,5.4,1.7,8.3,1.8 c-4.4,0.5-8.2,1.4-11.4,2.4c-3.1,1.1-5.5,2.3-6.9,3.8c-2.7,2.9-1.3,6.8,6.8,10.9c-5.7-0.3-13.6-3.7-19.6-2.9c0,0,0,0.1,0,0.1 c3,0.3,8.1,2,10.8,2.2c-3.4-0.2-6.8-0.5-10.2-0.7c0.5,1,1.1,2.1,1.7,3.1c2.5,1,5.1,1.8,7.7,2c-2.3-0.2-4.5-0.3-6.8-0.5 c1.6,2.4,3.5,4.8,5.6,7c8,5.1,15.9,11.9,20.5,12.1c18.2,1.7,36.6,2.6,54.9,2.1c18.3-0.4,36.7-1.7,54.7-4.4 c-0.4-2.7-2.7-5.1,0.1-6.8c4.5-2,8.9-1.1,13.4-0.3c4.5,0.8,9,1.7,13.4-0.5c-0.1-1.5-0.1-2.9-0.2-4.4c7.5,0.3,15.5,1.2,23.6,1.4 c3.5-1,6.9-2,10.4-3c3.4-1.1,6.8-2.2,10.2-3.4c6.8-2.3,13.5-4.9,20.1-7.6c-0.8-1.4-1.4-2.8-0.2-3.7c2.7-1.3,6-2.4,9.8-3.2 c3.7-0.9,7.9-1.6,11.9-2.8c1.1-0.6,2.2-1.3,3.3-1.9c0.6-1.2,0.3-2.7,0.2-3.7c3.6-1.1,7-1.8,10.1-2.4c35.9-22.1,69.4-48.5,102.2-79 c3-4.1,5.9-8.2,8.9-12c0.7-0.8,1.3-1.7,2-2.5V16.5z"></path> </g> </g> </svg> 