<?xml version="1.0" encoding="UTF-8"?> <!-- Generator: Adobe Illustrator 23.0.4, SVG Export Plug-In . SVG Version: 6.00 Build 0) --> <svg xmlns="http://www.w3.org/2000/svg" xmlns:xlink="http://www.w3.org/1999/xlink" version="1.1" x="0px" y="0px" viewBox="0 0 1034.6 284.2" style="enable-background:new 0 0 1034.6 284.2;" xml:space="preserve"> <style type="text/css"> .st0{fill:#F7EEE6;} .st1{fill:url(#);} .st2{fill:#3E2713;} .st3{opacity:0.5;} .st4{opacity:0.15;} .st5{fill:#C49B4B;} .st6{fill:#8D843F;} .st7{fill:#977355;} .st8{opacity:0.3;fill:#977355;} .st9{opacity:0.15;fill:#937640;} .st10{fill:#624836;} .st11{opacity:0.15;fill:#8D843F;} .st12{fill:#937640;} .st13{clip-path:url(#SVGID_2_);} .st14{opacity:0.15;fill:#C49B4B;} </style> <g id="PRINT_4"> </g> <g id="PRINT_3"> </g> <g id="PRINT_2"> <g> <defs> <rect id="SVGID_1_" width="1034.6" height="284.2"></rect> </defs> <clipPath id="SVGID_2_"> <use xlink:href="#SVGID_1_" style="overflow:visible;"></use> </clipPath> <g class="st13"> <path class="st0" d="M299.4,148.2c0,0,0.1,0,0.1,0.1c0-0.1,0.1-0.1,0.1-0.2L299.4,148.2z"></path> <path class="st0" d="M950.6,149.7C950.6,149.7,950.6,149.7,950.6,149.7c0.1,0,0.1-0.1,0.1-0.1L950.6,149.7z"></path> <path class="st0" d="M295.1,143.9C295.1,143.9,295.1,143.9,295.1,143.9c0,0.1,0,0.2,0,0.2L295.1,143.9z"></path> <path class="st0" d="M938.2,152.2C938.2,152.2,938.2,152.2,938.2,152.2c0.1,0,0.1-0.1,0.1-0.1L938.2,152.2z"></path> <path class="st0" d="M229.8,84.5C229.7,84.5,229.7,84.5,229.8,84.5c0,0.1,0,0.1,0,0.2L229.8,84.5z"></path> <path class="st0" d="M233.1,87.8c0,0,0.1,0,0.1,0c0,0,0.1-0.1,0.1-0.1L233.1,87.8z"></path> <path class="st0" d="M371.5,70.7C371.5,70.7,371.6,70.8,371.5,70.7c0,0,0.1-0.1,0.1-0.1L371.5,70.7z"></path> <path class="st0" d="M1074.5,453.1c-1.5-2.5-3.6-3.6-5.8-4.8c-2.7-1.5-5.2-3.3-7.7-5.2c-4.2-3.3-5-7.5-3.1-15.1 c0.6-2.2,1.2-4.5,1.7-6.7c0.6-2.7-0.6-5.5-2.4-5.4c-2.6,0.2-5.1,0.7-7.7,1.2c-5.8,1.1-11.7,2.6-17.5,3.3 c-3.3,0.4-6.4,0.9-9.7,2.7c-1.9,1-3.9,1.5-5.8,1.8c-2.9,0.6-5.8,0.9-8.7,1.4c-7.1,1.1-14.4,5.5-21.5,5.9 c-1.2,0.1-2.6,0.8-3.9,1.4c-1.8,0.7-3.2,2.3-3.9,4.7c-0.7,2.3-1.6,4.3-3.1,6c-1.8,2-4.3,1.7-4.6-0.9c-0.1-0.8-0.1-1.7-0.1-2.6 c0.1-3.3-0.9-5.5-2.5-7.3c-2-2.1-3.9-4.2-5.7-6.2c-0.6,0.3-0.9,0.4-1.2,0.7c-1.9,2.2-3.6,2.9-5.3,1.2c-1.6-1.5-3.4-2.8-5.1-4.2 c-2.3,2.7-4.7,3.9-7.2,3.5c-1.8-0.3-3.5-0.7-5.2-1.1c-3.6,4.1-7.5,5.5-11.3,5.2c-4.1-0.4-8.2,0.3-12.4,1.8 c-2.4,0.9-4.4,0.3-6.6,0.3c-2.2,0-4.4-0.4-6.7,1.6c-2.6,2.3-5,2.8-7.6,2.7c-2.5-0.2-5.1,0.3-7.6,0.5l0.1-0.1 c-0.9,0.8-1.9,1.6-2.8,2.3l0.1-0.1c-1.8,1.8-3.7,3.4-5.7,3.3c-3.5-0.1-6.9-0.2-10.3-0.5c-0.5,0-1-0.7-1.3-1.4 c-0.6-1.8-0.7-4,0.2-6.3c0.3-0.8,1-1.7,1.5-2c0.5-0.2,1.3,0.2,1.5,0.7c0.6,1.3,0.8,3,1.4,4.2c0.2,0.5,1.1,0.3,1.6,0.3 c0,0,0.3-0.7,0.3-1.1c0-5.4,0.7-6.9,3.8-8c2.3-0.8,4.6-1.7,6.9-2.2c5.9-1.2,11.7-2.5,17.1-0.9c0.8,0.2,1.9,0.5,2.7,0 c4.6-2.9,9.1-1.9,13.7-4.4c1.2-0.6,2.6-0.4,3.8-0.4c1.9,0,3.8,0.7,5.6,0.1c5-1.7,9.7-1.1,14.6-2.7c4-1.3,7.8-1.2,11.5-1 c1.6,0.1,3.3-0.1,4.6,0.5c2,0.9,3.9-1.9,5.8-1.8c2.8,0.3,5.7-0.7,8.7-2.4c1.6-0.9,3.2-0.7,4.9-1.1c1.3-0.3,2.6-0.8,3.9-1.3 c1.2-0.4,2.4-2.8,2.5-4.4c0-0.9-0.1-1.7-0.2-2.5c0-0.8-0.1-1.7-0.1-2.5c0-1.1,1.3-2.9,2.2-3c2.9-0.3,5.8,0.2,8.7-1.1 c7.6-3.6,15.1-3.7,22.6-7.4c1.4-0.7,2.5-0.1,3.2,1.3c0.6,1.4,1.3,3,2.7,2.5c5.2-2,10,1.4,15.4-3.7c0.3-0.2,0.6-0.2,1-0.2 c2-0.5,4.2,0.9,4.4,2.9c0.2,1.7-2.4,4.6-4.7,5.1c-1.3,0.3-2.6,0.1-3.9,0.6c-1.6,0.6-3.2,1.5-4.8,2.5c-0.3,0.2-0.5,1.5-0.7,2.2 c0,0.2,0.4,0.6,0.6,0.6c0.6,0.1,1.3,0.1,1.9-0.1c6.6-1.9,13.1-3.6,19.3-2.2c1.2,0.2,2.6-0.2,3.9-0.6c1.6-0.6,3.3-1.5,4.9-2.2 c1.6-0.7,3.2,0.3,5-2c-0.5-0.8-1-1.7-1.5-2.4c-1.1-1.3-2-3-1.8-5.2c0.6-5.9-1-10.9-0.2-16.8c0.3-2.2-1.1-4.1-2.7-3.7 c-6.8,1.5-13.4,0.3-20.4,3.2c-3,1.2-5.1-0.6-5.6-4c-0.6-3.6-1.2-7.2-1.8-10.8c-0.2-1.5,0.8-3.8,2.1-4.6c0.6-0.4,1.3-1.1,1.9-1.3 c4.6-1.4,9.2-2.9,13.7-3c0.6,0,1.2,0.2,1.7,0.6c0.5,0.4,0.8,1,1.1,1.6c0.5,0.9-0.2,3.1-1.1,3.5c-1.3,0.6-2.6,0.8-3.9,1.5 c-0.5,0.2-1.1,1.5-1.1,2.1c0,0.7,0.4,1.8,0.9,1.7c2.9-0.1,5.7-0.3,8.6-0.7c0.9-0.1,1.9-1.1,2.9-1.7c1-0.6,1.7-2.3,1.3-3.4 c-0.3-0.7-0.7-1.2-1-1.9c-0.5-1-0.7-2.2,0-3.6c0.7-1.4,1.6-1.9,2.6-2c1.3-0.2,2.6-0.3,3.8-0.7c0.5-0.2,1.3-1.1,1.5-1.8 c0.2-0.6-0.1-1.9-0.5-1.9c-6.1-1.1-12-2.6-18.4-2.6c-5.7,0-11.4,0-17.1-0.1c-1.9,0-3.7-0.4-4.9-2.2c-1.2-1.8-2.9-2.6-4.9-2.3 c-4.5,0.7-8.9-0.2-13.5,1.7c-2.9,1.2-5,0.4-6.7-2c-1.1-1.6-2.6-1.6-4.3-0.1c-1.4,1.2-2.7,1.4-3.3-0.3c-1.1-3.2-3-2.9-5.6-0.9 c-1.3,1-2.8,1.5-3.7,0.6c-2.1-2.2-4.3-3.6-7.6-2.1c-1.1,0.5-2.4-0.2-3.5-0.8c-2-1-4.1-1.1-6.5-0.4c-1.6,0.5-3.4,1.1-4.8,0.9 c-6.5-1-13.4,0.3-20.1,0.8c-2.9,0.2-5.9,0.7-8.5,0c-3.1-0.8-6.2-0.4-9.5,0.3c-8.2,1.7-16.2,2.1-23.9,0.9 c-5.6-0.9-11.3-0.2-17.2,0.9c-2.3,0.4-4.6,1-6.8,1.1c-9.6,0.7-19.2,1.3-28.8,1.8c-5.8,0.3-11.5,0.4-17.3,0.6 c-0.1-0.5-0.2-1-0.1-1.6c0.4-4.6-0.7-8.5-0.2-13.1c0.2-1.8-0.9-3.2-2.1-2.9c-5.3,1.1-10.4,0.3-15.9,2.5c-2.3,1-4-0.5-4.4-3.1 c-0.2-1-0.3-2.1-0.5-3.1c2-0.4,4.1-0.9,6.2-2c0.3-0.2,0.7-0.2,1-0.2c6.7,1.3,13.9-0.4,21-1.4c0.3,0,0.7-0.1,0.9,0.1 c2,1,4.2,1.2,6.5,0.1c2.7-1.3,5,0.5,7.7-1.7l-0.1,0.1c0.5,0.3,1,1,1.6,1c5.8-0.6,11.6-1.3,17.4-2c3.6-0.4,7.1-0.9,10.6-1.1 c1.6-0.1,3.3-0.3,4.6,0.4c3.1,1.7,6.7,0.9,10,1.4c6,0.9,12.1-0.7,18.4-2.4c2.3-0.6,4.6-1.5,6.9-2c7.5-1.4,15-2.7,22.5-4 c6.8-1.2,13.8-3.8,20.6-6.2c10.5-3.6,21-7.6,31.4-8.1c1.9-0.1,3.9-1,5.9-1.5c6.5-1.6,13.1-3.7,18.7-0.4c0.5,0.3,1.2,0.3,1.8,0.4 c2.7,0.2,5.2-1.2,7.6-4c1.1-1.3,2.2-2.8,3.1-4.4c1.6-2.8,3-5.7,4.5-8.6c1.6-3.2,3.7-4.9,6.1-5.3c0.7-0.1,1.3-0.2,1.9-0.2 c4.2,0.3,7.7-2.9,11.1-7.1c1.2-1.6,1.6-4.9,0.4-6c-1.4-1.3-3.1-2.1-4.3-3.6c-1.4-1.8-2.5-4.1-3.7-6.2c-0.2-0.3-0.5-0.3-0.8-0.5 c-0.8-0.4-1.9-0.5-2.3-1.4c-0.7-1.7,0.8-3.3,1.6-4.9c1-2.3,0.9-4.4,1-6.6c0.1-2.4,0.9-4.5,2.5-6.2c1.4-1.6,2.9-3,4.3-4.7 c2.3-2.7,4-5.7,5.2-9.5c1.3-4.4,3.2-8.6,4.8-12.9c-1.3,0.3-2.5,0.5-3.8,0.7c-0.2,0-0.7-0.4-0.6-0.6c0.2-0.8,0.4-2.1,0.8-2.3 c5.8-3.1,11.7-6.1,17.5-9.1c1.6-0.8,3.3-1.5,4.9-2.4c0.4-0.3,0.8-1.4,1.1-2.2c0.1-0.2-0.2-0.8-0.4-0.9c-1.9-0.9-4.5,0.1-5.9-2.2 c-1.5-2.5-3.6-3.6-5.8-4.8c-2.7-1.5-5.2-3.3-7.7-5.2c-4.2-3.3-5-7.5-3.1-15.1c0.6-2.2,1.2-4.5,1.7-6.7c0.6-2.7-0.6-5.5-2.4-5.4 c-2.6,0.2-5.1,0.7-7.7,1.2c-5.8,1.1-11.7,2.6-17.5,3.3c-3.3,0.4-6.4,0.9-9.7,2.7c-1.9,1-3.9,1.5-5.8,1.8 c-2.9,0.6-5.8,0.9-8.7,1.4c-7.1,1.1-14.4,5.5-21.5,5.9c-1.2,0.1-2.6,0.8-3.9,1.4c-1.8,0.7-3.2,2.3-3.9,4.7 c-0.7,2.3-1.6,4.3-3.1,6c-1.8,2-4.3,1.7-4.6-0.9c-0.1-0.8-0.1-1.7-0.1-2.6c0.1-3.3-0.9-5.5-2.5-7.3c-2-2.1-3.9-4.2-5.7-6.2 c-0.6,0.3-0.9,0.4-1.2,0.7c-1.9,2.2-3.6,2.9-5.3,1.2c-1.6-1.5-3.4-2.8-5.1-4.2c-2.3,2.7-4.7,3.9-7.2,3.5 c-1.8-0.3-3.5-0.7-5.2-1.1c-3.6,4.1-7.5,5.5-11.3,5.2c-4.1-0.4-8.2,0.3-12.4,1.8c-2.4,0.9-4.4,0.3-6.6,0.3 c-2.2,0-4.4-0.4-6.7,1.6c-2.6,2.3-5,2.8-7.6,2.7c-2.5-0.2-5.1,0.3-7.6,0.5l0.1-0.1c-0.9,0.8-1.9,1.6-2.8,2.3l0.1-0.1 c-1.8,1.8-3.7,3.4-5.7,3.3c-3.5-0.1-6.9-0.2-10.3-0.5c-0.5,0-1-0.7-1.3-1.4c-0.6-1.8-0.7-4,0.2-6.3c0.3-0.8,1-1.7,1.5-2 c0.5-0.2,1.3,0.2,1.5,0.7c0.6,1.3,0.8,3,1.4,4.2c0.2,0.5,1.1,0.3,1.6,0.3c0,0,0.3-0.7,0.3-1.1c0-5.4,0.7-6.9,3.8-8 c2.3-0.8,4.6-1.7,6.9-2.2c5.9-1.2,11.7-2.5,17.1-0.9c0.8,0.2,1.9,0.5,2.7,0c4.6-2.9,9.1-1.9,13.7-4.4c1.2-0.6,2.6-0.4,3.8-0.4 c1.9,0,3.8,0.7,5.6,0.1c5-1.7,9.7-1.1,14.6-2.7c4-1.3,7.8-1.2,11.5-1c1.6,0.1,3.3-0.1,4.6,0.5c2,0.9,3.9-1.9,5.8-1.8 c2.8,0.3,5.7-0.7,8.7-2.4c1.6-0.9,3.2-0.7,4.9-1.1c1.3-0.3,2.6-0.8,3.9-1.3c1.2-0.4,2.4-2.8,2.5-4.4c0-0.9-0.1-1.7-0.2-2.5 c0-0.8-0.1-1.7-0.1-2.5c0-1.1,1.3-2.9,2.2-3c2.9-0.3,5.8,0.2,8.7-1.1c7.6-3.6,15.1-3.7,22.6-7.4c1.4-0.7,2.5-0.1,3.2,1.3 c0.6,1.4,1.3,3,2.7,2.5c5.2-2,10,1.4,15.4-3.7c0.3-0.2,0.6-0.2,1-0.2c2-0.5,4.2,0.9,4.4,2.9c0.2,1.7-2.4,4.6-4.7,5.1 c-1.3,0.3-2.6,0.1-3.9,0.6c-1.6,0.6-3.2,1.5-4.8,2.5c-0.3,0.2-0.5,1.5-0.7,2.2c0,0.2,0.4,0.6,0.6,0.6c0.6,0.1,1.3,0.1,1.9-0.1 c6.6-1.9,13.1-3.6,19.3-2.2c1.2,0.2,2.6-0.2,3.9-0.6c1.6-0.6,3.3-1.5,4.9-2.2c1.6-0.7,3.2,0.3,5-2c-0.5-0.8-1-1.7-1.5-2.4 c-1.1-1.3-2-3-1.8-5.2c0.6-5.9-1-10.9-0.2-16.8c0.3-2.2-1.1-4.1-2.7-3.7c-6.8,1.5-13.4,0.3-20.4,3.2c-3,1.2-5.1-0.6-5.6-4 c-0.6-3.6-1.2-7.2-1.8-10.8c-0.2-1.5,0.8-3.8,2.1-4.6c0.6-0.4,1.3-1.1,1.9-1.3c4.6-1.4,9.2-2.9,13.7-3c0.6,0,1.2,0.2,1.7,0.6 c0.5,0.4,0.8,1,1.1,1.6c0.5,0.9-0.2,3.1-1.1,3.5c-1.3,0.6-2.6,0.8-3.9,1.5c-0.5,0.2-1.1,1.5-1.1,2.1c0,0.7,0.4,1.8,0.9,1.7 c2.9-0.1,5.7-0.3,8.6-0.7c0.9-0.1,1.9-1.1,2.9-1.7c1-0.6,1.7-2.3,1.3-3.4c-0.3-0.7-0.7-1.2-1-1.9c-0.5-1-0.7-2.2,0-3.6 c0.7-1.4,1.6-1.9,2.6-2c1.3-0.2,2.6-0.3,3.8-0.7c0.5-0.2,1.3-1.1,1.5-1.8c0.2-0.6-0.1-1.9-0.5-1.9c-6.1-1.1-12-2.6-18.4-2.6 c-5.7,0-11.4,0-17.1-0.1c-1.9,0-3.7-0.4-4.9-2.2c-1.2-1.8-2.9-2.6-4.9-2.3c-4.5,0.7-8.9-0.2-13.5,1.7c-2.9,1.2-5,0.4-6.7-2 c-1.1-1.6-2.6-1.6-4.3-0.1c-1.4,1.2-2.7,1.4-3.3-0.3c-1.1-3.2-3-2.9-5.6-0.9c-1.3,1-2.8,1.5-3.7,0.6c-2.1-2.2-4.3-3.6-7.6-2.1 c-1.1,0.5-2.4-0.2-3.5-0.8c-2-1-4.1-1.1-6.5-0.4c-1.6,0.5-3.4,1.1-4.8,0.9c-6.5-1-13.4,0.3-20.1,0.8c-2.9,0.2-5.9,0.7-8.5,0 c-3.1-0.8-6.2-0.4-9.5,0.3c-8.2,1.7-16.2,2.1-23.9,0.9c-5.6-0.9-11.3-0.2-17.2,0.9c-2.3,0.4-4.6,1-6.8,1.1 c-9.6,0.7-19.2,1.3-28.8,1.8c-5.8,0.3-11.5,0.4-17.3,0.6c-0.1-0.5-0.2-1-0.1-1.6c0.4-4.6-0.7-8.5-0.2-13.1 c0.2-1.8-0.9-3.2-2.1-2.9c-5.3,1.1-10.4,0.3-15.9,2.5c-2.3,1-4-0.5-4.4-3.1c-0.5-2.8-0.9-5.6-1.4-8.4c-0.2-1.2,0.6-2.9,1.6-3.6 c0.5-0.3,1-0.8,1.5-1c3.6-1.1,7.2-2.3,10.7-2.3c0.5,0,1,0.2,1.3,0.5c0.4,0.3,0.6,0.8,0.9,1.3c0.4,0.7-0.2,2.4-0.9,2.7 c-1,0.4-2,0.6-3,1.2c-0.4,0.2-0.9,1.2-0.9,1.7c0,0.5,0.3,1.4,0.7,1.4c2.2-0.1,4.5-0.2,6.7-0.6c0.7-0.1,1.5-0.8,2.3-1.3 c0.8-0.5,1.3-1.8,1-2.6c-0.2-0.5-0.5-1-0.8-1.5c-0.4-0.8-0.5-1.7,0-2.8c0.5-1.1,1.3-1.5,2-1.6c1-0.2,2-0.2,3-0.6 c0.4-0.1,1-0.9,1.2-1.4c0.1-0.5-0.1-1.5-0.4-1.5c-4.7-0.8-9.4-2.1-14.3-2c-4.4,0-8.9,0-13.3-0.1c-1.5,0-2.9-0.3-3.8-1.7 c-0.9-1.4-2.3-2-3.8-1.8c-3.5,0.6-6.9-0.1-10.6,1.3c-2.3,0.9-3.9,0.3-5.2-1.6c-0.8-1.2-2-1.3-3.4-0.1c-1.1,0.9-2.1,1.1-2.6-0.2 c-0.9-2.5-2.4-2.3-4.4-0.7c-1,0.8-2.2,1.2-2.9,0.4c-1.6-1.7-3.3-2.8-6-1.6c-0.9,0.4-1.9-0.2-2.7-0.6c-1.6-0.8-3.2-0.9-5.1-0.3 c-1.3,0.4-2.6,0.8-3.8,0.7c-5.1-0.7-10.4,0.2-15.7,0.6c-2.2,0.2-4.6,0.6-6.7,0c-2.4-0.6-4.8-0.3-7.4,0.2 c-6.4,1.4-12.6,1.7-18.6,0.7c-4.3-0.7-8.9-0.2-13.4,0.7c-1.8,0.3-3.6,0.8-5.3,0.9c-7.5,0.5-15,1-22.5,1.4 c-5,0.3-9.9,0.3-14.9,0.5c-2.5,0.1-5,0.1-7.6,1c-3.7,1.3-7.1,1.2-10.4,0.5c-2.1-0.4-4.3-0.7-6.7,0.1c-3.1,1.1-6.1,1.1-8.9,0.5 c-2-0.4-4,0.5-5.9,2.6c-0.4,0.5-0.9,1-1.4,1.4c-1.3,1.1-2.5,1.1-3.5,0.1c-0.5-0.5-1-1.2-1.6-1.7c-1.2-1.1-2.6-1.5-4.2,0.1 c-2.2,2.2-4.3,3.5-6.6,2.6c-0.8-0.3-2,0.2-3,0.4c-1,0.2-2.1,0.8-3,0.7c-6.3-0.7-13,0.9-19.3,0.9c-2.2,0-4.5,0.4-6.8,0.7 c-1.6,0.2-3,1.2-4.4,2.8c-1.1,1.3-2,3-3.6,3.1c-0.8-1.5-1.7-3.3-2.7-4.8c-0.4-0.6-1.1-1-1.8-1.1c-1-0.1-1.9,1-2.7,2.2 c-2,0.6-4,1-6,1.7c-1.9,0.7-3.4,0.7-4.8-0.7c-2.2-2.3-5.3-2-8.2-2.1c-1.4,0-3.2,1.8-3.9,3.8c-0.6,1.7-0.9,3.5-1.6,5.1 c-0.6,1.4-1.6,2.2-2.7,2.6c-1,0.5-2.1-0.5-1.8-1.9c0.3-1.4,0.7-2.8,1-4.2c0.3-1.4-0.4-2.4-1.6-2.2c-0.5,0.1-1,0.4-1.5,0.7 l0.1-0.1c-1.4,0.5-2.5,1.3-2.6,3.7c0,1-0.2,2.1-0.3,3.1c-0.2,1-1.3,1.9-1.9,1.6c-0.4-0.2-0.8-0.5-1.2-0.8 c-1.2-1.2-2.5-1.3-4.1,0.7c-0.6,0.8-1.3,1.5-2,2.2c-1,0.9-2.1,1.2-3,0.7c-1.1-0.5-2-1.3-3.2-2.1c-1.4,1-2.8,2.3-4.3,2.9 c-1.8,0.7-3.5,0.8-5.3,1.3c-1,0.3-2,0.7-3.1,1.1c-3.6,1.2-7.2,2.5-10.8,3.5c-1.2,0.3-2.5,0.2-3.6-0.1c-1.2-0.2-2.3-0.2-3.7,0.8 c-1.2,0.9-2.5,1.4-3.8,1.8c-4.1,1.2-8.2,2.3-12.3,3.3c-5.9,1.4-11.7,2.7-17.4,2.2c-3.4-0.3-6.9,0.1-10.5,0.6 c-3.5,0.5-7.1,2-10.4,0.5c-1-0.4-2.5,0.4-3.7,0.5c-1.7,0.1-3.6,0.6-5.2,0.1c-2.4-0.8-5.4-0.4-6.9-3.6c-0.4-0.8-2.2,0.1-2.8,1.1 c-0.7,1.3-1.3,2.6-2,3.8c-0.7,1.2-1.4,2.5-2.2,3.6c-0.3,0.4-1.2,0.5-1.3,0.2c-0.5-0.9-0.8-2.2-1.2-3.2c-0.6-1.4-1.6-2-2.3-1.4 c-0.8,0.7-1.1,1.7-1.3,2.7c-0.1,0.4-0.1,0.7-0.2,1.1c-0.5,1.6-1.4,2.7-2.5,2.5c-0.9-0.2-1.7-0.8-2.5-1.2 c-1.5,2.5-3.4,4.2-5.5,4.6c-4.3,1-8.6,1.8-12.9,2.5c-1.5,0.2-3,0-4.4-0.2c-1-0.1-1.8-0.8-2.1-2c-0.3-1.1-0.4-2.6-0.9-3.5 c-0.6-1.2-1.4-2.6-2.5-2.8c-4.9-1.2-10.1-1-15.4,0.1c-2.3,1.8-4.5,0.8-6.8,1.6c-0.4,1.4-0.8,2.7-1.3,4.1c-0.3,0.9-1.6,1.7-2,1.3 c-0.8-0.9-1.6-1.9-2.4-2.9c-3.1-3.9-6.9-5.6-12-2c-2.4,1.7-4.5,2-6.6,1.3c-0.2-0.1-0.5,0-0.7,0c-0.9,0-2,1.3-2.3,2.9 c-0.2,1.4-0.3,2.8-0.6,4.2c-0.3,1.4-1.2,2.5-2.4,2.5c-1,0-1.9-0.2-2.9-0.3l0.1-0.1c-1.5,0.5-3.1,1.1-4.6,1.3 c-2.3,0.4-4.5,0.4-6.8,0.7c-1.5,0.2-3.2,0.7-4.5,2.2c-3.2,3.8-6.2,4.5-9.3,3.1c-1.7-0.8-3.7-0.8-5.5-1.4 c-2.6-0.9-5.1-0.8-8.1,1.2c-4.1,2.7-8.1,3.1-11.5,0.8c-1.4-0.9-2.9-1.4-4.4-2.1c-0.5,0.8-1.1,1.6-1.6,2.5 c-0.7,1.2-1.4,2.4-2.5,2.4c-1.3,0-2.5-1.7-2.5-3.5c0-0.6,0.3-1.4,0.6-1.9c0.8-1,1.7-1.9,2.5-2.9c-0.9-2.2-2-3.8-4.3-3.3 c-2.6,0.5-5,0.5-7.3-0.5c-0.6-0.2-1.6,0.1-2.2,0.7c-3.6,3.1-7,4.3-10.2,2.5c-0.9-0.5-1.9-0.4-2.9,0.3c-2.7,2-4.9,1.3-7.2,0.3 c-2.2-1-4.1-2.4-5.9-3.8c-2.2,0.8-4.4,2-6.3,2.1c-6.7,0.3-13.7,2.6-20.4,2.4c-1.2,0-2.6,0.2-3.8,1c-3.1,2-6.1,2.4-9.2,3.2 c-5.4,1.3-10.6,1.2-16,3.1c-2,0.7-4,0.6-6,0.5c-2,0-4,0.2-6,0.9c-2,0.7-4.1,0.9-6.1,1.4c-0.7,0.2-1.5,0.6-2.3,1.1 c-0.2,0.1-0.6,0.6-0.6,0.8c0,0.6-0.1,1.5,0.2,1.7c0.8,0.6,1.7,0.8,2.5,1.4c2.3,1.8,4.8,1.9,7.8-0.3c1.3-0.9,2.6-1.2,3.7-0.6 c2.2,1,4.8,0.7,7.1,1.1c0.2,0,0.4,0.5,0.3,0.7c-0.2,0.6-0.6,1.5-0.9,1.6c-1.3,0.6-2.6,1.4-3.8,1.4c-3.5,0-7.1,1.3-10.7,2.6 c-2.8,1-5.7,1.9-8.4,2c-4.2,0.2-8.3-0.2-12.4-0.7c-2.2-0.3-4.4,0-6.8,1.2c-2,1-4.1,1.4-6.1,2.1c-2.3,0.7-4.6,1.6-6.9,2.2 c-3.1,0.9-5.4,3.2-7.3,7.2c-1.3,2.8-3,3.3-4.8,2.6c-0.9-0.3-1.9-0.7-2.8-0.5c-4.1,1-8.1,1.1-12.2,3.7c-1,0.6-2,1-3.1,1.5 c-1.1,0.5-2,0.5-2.9-0.1c-2.9-2.1-6.2-2.2-10-0.4c-0.8,0.4-1.5,0.4-2.3,0.7c-2,0.8-3.5,0.4-4.4-1.7c-0.9-2.1-2.4-2.7-4.4-1.5 c-0.7,0.4-1.5,1.3-1.9,2.1c-0.5,1.1,0,1.9,0.7,2.3c1.1,0.6,1.9,1.5,1.9,3.4c0,1.7,0.2,3.3,0.4,4.9c0.3,2.5,0.3,2.8-1.8,4 c-2.4,1.5-3,3.1-3.2,5.9c-0.1,1.7-0.1,3.4-0.1,5.1c0,1.9,0.9,3,2.2,2.7c2.3-0.6,4.6-1.3,6.6-0.3c0.6,0.3,1.2,0.9,1.4,1.7 c0.3,1-0.4,2-1.2,2.6c-2.6,2-3.4,5.2-4.1,8.4c-0.3,1.4,0,2.7,0.6,3.6c0.7,1.2,1.6,2,2.9,2.1c1.2,0.1,2.4,0.1,3.6,0.2 c0.2,0,0.5,0.4,0.4,0.6c-0.1,0.6-0.3,1.5-0.6,1.8c-2.1,1.7-4.6,2.1-6.3,5.5c-0.2,0.5-1,0.8-1.4,0.8c-2.2-0.2-4.2-0.6-6.6,0.1 c-0.9,0.3-1.7-0.7-2.5-1.2c-0.8-0.5-1-2.1-0.5-3.5c0.9-2.4,1.8-4.7,2.6-7.1c0.1-0.4-0.1-1.5-0.5-1.5c-1.8-0.5-3.7-0.8-5.6-1.1 c-0.2,0-0.5,0-0.7,0c-1.8,0.6-2.7,2.6-3.7,4.5c-0.6,1.2-0.5,2.3,0.4,3.4c0.8,1,1.7,1.9,2.4,3.1c1.5,2.6,0.7,7.4-1.6,10.5 c-0.8,1.1-1.6,2.6-2.6,3.1c-2.2,1.3-2.1,4.4-3.5,6.3c-1.9,1.4-3.9,2.8-5.9,4.4c-1.5,1.2-2.8,2.8-3.4,5.1 c-0.6,2.4-1.9,3.6-3.5,4.7c-2.5,1.7-4,4.4-3.9,8c0.1,2.4-0.2,4.8-1.3,7.2c-0.7,1.6-1.4,3.4-1.8,5.1c-0.4,1.7-0.5,3.4-0.7,5.4 c-1.2,0.9-2.4,1.8-3.6,2.7c-1.8,1.4-3.2,3.4-4.4,5.6c-1.5,2.8-1.5,5.6,0.1,7.1c0.4,0.4,0.7,0.7,1.1,1c1.8,1.7,3,1.3,4.1-2.1 c0.3-1,0.7-1.9,1-2.9c0.9,2.2,1.1,4.8-0.1,7.7c-0.9,2.1-1.3,4.1-1.4,6.2c-0.2,4.2-2,7.6-4.5,10.6c-1.5,1.8-3,4.1-4.7,5.1 c-3.3,2-4.1,6.3-6.1,9.3c-0.2,0.3-0.1,1.5,0.1,1.7c1,0.6,1.1,1.7,0.9,3.2c0,0.3-0.1,0.8,0.1,1c0.3,0.4,0.6,1,1,1 c0.4,0,1.1-0.5,1.4-1c1.4-2.4,1.8-5.5,3.6-7.8c3-3.7,5.9-7.5,8.9-11.2c0.6-0.8,1.7-0.8,1.9,0.1c0.3,0.9,0.4,1.8,0.6,2.7 c0.5,1.9,1.4,2.3,2.8,1c1.2-1,2.3-2.4,3.6-3.1c0.9-0.6,2-0.5,3-0.5c1.1,0,1.4,1.2,1.6,2.5c0.2,0.9,0.3,1.9,0.7,2.6 c0.2,0.5,0.7,1,1.1,0.9c1.3-0.2-2,17.4-2.8,20.3c-0.8,3.1-2.5,4.7-4.5,6.1c-3.3,2.2-5.1,5.6-5,10.2c0.1,3.1-0.3,6.1-1.7,9.3 c-0.9,2.1-1.8,4.3-2.4,6.6c-0.5,2.2-0.6,4.4-1,7c-1.5,1.2-3.1,2.2-4.6,3.5c-2.2,1.8-4.1,4.3-5.6,7.2c-2,3.6-1.9,7.1,0.2,9.1 c0.5,0.4,0.9,0.9,1.4,1.3c2.3,2.1,3.9,1.6,5.3-2.7c0.4-1.2,0.9-2.5,1.3-3.7c1.1,2.9,1.4,6.2-0.1,9.8c-1.1,2.7-1.6,5.3-1.8,8 c-0.3,5.4-2.5,9.7-5.7,13.6c-1.9,2.3-3.9,5.3-6,6.6c-4.2,2.5-5.2,8-7.8,12c-0.3,0.4-0.2,2,0.2,2.2c1.2,0.8,1.5,2.2,1.2,4.1 c-0.1,0.4-0.1,1,0.1,1.2c0.3,0.6,0.7,1.3,1.3,1.3c0.5,0,1.4-0.7,1.7-1.3c1.8-3.1,2.2-7.1,4.6-10c3.8-4.7,7.6-9.6,11.4-14.4 c0.8-1,2.1-1,2.4,0.1c0.3,1.1,0.5,2.3,0.8,3.4c0.7,2.5,1.8,2.9,3.6,1.3c1.5-1.3,3-3.1,4.6-4c1.2-0.7,2.6-0.6,3.8-0.7 c1.5,0,1.8,1.6,2.1,3.2c0.2,1.2,0.4,2.4,0.8,3.4c0.3,0.6,0.9,1.3,1.4,1.2c1.6-0.3,3.4-1.4,4.8-1.2c3,0.3,5-2.1,7-5.4 c0.8-1.4,1.5-3.4,3.1-3.6c0.1,0.3,0.4,0.6,0.4,1c0,1.7-0.1,3.6,1.3,4.1c1.2,0.5,2.5,0.4,3.7-0.7c0.4-0.4,0.9-1.6,0.9-2.2 c0-0.7-0.6-1.3-1-1.8c-0.6-0.8-1.1-1.8-0.3-3.2c0.4-0.7,1.1-1.3,1.7-1.6c10.2-3.8,20-3,30.1-5.4c0.3-0.1,0.6,0,0.9,0.2 c3,1.2,6.2,0.2,9.6-1.4c1.3-0.6,2.7-1.6,3.9-1.6c6.7-0.2,13.6-2.1,20-0.9c2.5,0.5,5.1,1,7.6-0.8c4.1-3.1,7.8-3,11.6-3.3 c3.2-0.3,6.4-0.7,9.7-2.5c0.8-0.4,1.5,1.1,1.3,2.5c-0.1,0.9-0.2,1.8-0.4,2.7c-0.9,3.9-1.5,7.7-1.9,11.4c-3.2-0.1-6.3-0.3-9.4-0.7 c-2.2-0.3-4.4,0-6.8,1.2c-2,1-4.1,1.4-6.1,2.1c-2.3,0.7-4.6,1.6-6.9,2.2c-3.1,0.9-5.4,3.2-7.3,7.2c-1.3,2.8-3,3.3-4.8,2.6 c-0.9-0.3-1.9-0.7-2.8-0.5c-4.1,1-8.1,1.1-12.2,3.7c-1,0.6-2,1-3.1,1.5c-1.1,0.5-2,0.5-2.9-0.1c-2.9-2.1-6.2-2.2-10-0.4 c-0.8,0.4-1.5,0.4-2.3,0.7c-2,0.8-3.5,0.4-4.4-1.7c-0.9-2.1-2.4-2.7-4.4-1.5c-0.7,0.4-1.5,1.3-1.9,2.1c-0.5,1.1,0,1.9,0.7,2.3 c1.1,0.6,1.9,1.5,1.9,3.4c0,1.7,0.2,3.3,0.4,4.9c0.3,2.5,0.3,2.8-1.8,4c-2.4,1.5-3,3.1-3.2,5.9c-0.1,1.3-0.1,2.6-0.1,4 c-0.4,0.4-0.8,0.8-1,1.3c-1.4,2.3-2.5,4.9-3.5,7.5c-0.7,1.6-1.6,3.3-1.1,5.1c0.6-0.2,1.3-0.7,1.9-0.6c0.5,0,1.1,0.4,1.5,0.8 c0.1,0.1,0.1,0.9-0.1,1.3c-0.4,0.8-0.9,1.6-1.3,2.3c-1.7-0.4-3.5-0.7-5.3-1.1c-0.2,0-0.5,0-0.7,0c-1.8,0.6-2.7,2.6-3.7,4.5 c-0.6,1.2-0.5,2.3,0.4,3.4c0.8,1,1.7,1.9,2.4,3.1c1.5,2.6,0.7,7.4-1.6,10.5c-0.8,1.1-1.6,2.6-2.6,3.1c-2.2,1.3-2.1,4.4-3.5,6.3 c-1.9,1.4-3.9,2.8-5.9,4.4c-1.5,1.2-2.8,2.8-3.4,5.1c-0.6,2.4-1.9,3.6-3.5,4.7c-2.5,1.7-4,4.4-3.9,8c0.1,2.4-0.2,4.8-1.3,7.2 c-0.7,1.6-1.4,3.4-1.8,5.1c-0.4,1.7-0.5,3.4-0.7,5.4c-1.2,0.9-2.4,1.8-3.6,2.7c-1.8,1.4-3.2,3.4-4.4,5.6 c-1.5,2.8-1.5,5.6,0.1,7.1c0.4,0.4,0.7,0.7,1.1,1c1.8,1.7,3,1.3,4.1-2.1c0.3-1,0.7-1.9,1-2.9c0.9,2.2,1.1,4.8-0.1,7.7 c-0.9,2.1-1.3,4.1-1.4,6.2c-0.2,4.2-2,7.6-4.5,10.6c-1.5,1.8-3,4.1-4.7,5.1c-3.3,2-4.1,6.3-6.1,9.3c-0.2,0.3-0.1,1.5,0.1,1.7 c1,0.6,1.1,1.7,0.9,3.2c0,0.3-0.1,0.8,0.1,1c0.3,0.4,0.6,1,1,1c0.4,0,1.1-0.5,1.4-1c1.4-2.4,1.8-5.5,3.6-7.8 c3-3.7,5.9-7.5,8.9-11.2c0.6-0.8,1.7-0.8,1.9,0.1c0.3,0.9,0.4,1.8,0.6,2.7c0.5,1.9,1.4,2.3,2.8,1c1.2-1,2.3-2.4,3.6-3.1 c0.9-0.6,2-0.5,3-0.5c1.1,0,1.4,1.2,1.6,2.5c0.2,0.9,0.3,1.9,0.7,2.6c0.2,0.5,0.7,1,1.1,0.9c1.3-0.2,2.6-1.1,3.8-1 c2.4,0.3,3.9-1.6,5.4-4.2c0.7-1.1,1.2-2.6,2.4-2.8c0.1,0.3,0.3,0.5,0.3,0.7c0,1.3-0.1,2.8,1,3.2c0.9,0.4,1.9,0.3,2.9-0.5 c0.3-0.3,0.7-1.3,0.7-1.7c0-0.6-0.5-1-0.8-1.4c-0.5-0.6-0.9-1.4-0.2-2.5c0.3-0.5,0.9-1.1,1.4-1.2c1-0.4,2-0.7,3-1 c-0.1,2.9-1.2,6.1-3,8.5c-1.1,1.4-2.1,3.3-3.3,4c-2.9,1.7-2.7,5.6-4.5,8.1c-2.5,1.8-5,3.6-7.5,5.6c-1.9,1.5-3.6,3.6-4.3,6.5 c-0.8,3.1-2.5,4.7-4.5,6.1c-3.3,2.2-5.1,5.6-5,10.2c0.1,3.1-0.3,6.1-1.7,9.3c-0.9,2.1-1.8,4.3-2.4,6.6c-0.5,2.2-0.6,4.4-1,7 c-1.5,1.2-3.1,2.2-4.6,3.5c-2.2,1.8-4.1,4.3-5.6,7.2c-2,3.6-1.9,7.1,0.2,9.1c0.5,0.4,0.9,0.9,1.4,1.3c2.3,2.1,3.9,1.6,5.3-2.7 c0.4-1.2,0.9-2.5,1.3-3.7c1.1,2.9,1.4,6.2-0.1,9.8c-1.1,2.7-1.6,5.3-1.8,8c-0.3,5.4-2.5,9.7-5.7,13.6c-1.9,2.3-3.9,5.3-6,6.6 c-4.2,2.5-5.2,8-7.8,12c-0.3,0.4-0.2,2,0.2,2.2c1.2,0.8,1.5,2.2,1.2,4.1c-0.1,0.4-0.1,1,0.1,1.2c0.3,0.6,0.7,1.3,1.3,1.3 c0.5,0,1.4-0.7,1.7-1.3c1.8-3.1,2.2-7.1,4.6-10c3.8-4.7,7.6-9.6,11.4-14.4c0.8-1,2.1-1,2.4,0.1c0.3,1.1,0.5,2.3,0.8,3.4 c0.7,2.5,1.8,2.9,3.6,1.3c1.5-1.3,3-3.1,4.6-4c1.2-0.7,2.6-0.6,3.8-0.7c1.5,0,1.8,1.6,2.1,3.2c0.2,1.2,0.4,2.4,0.8,3.4 c0.3,0.6,0.9,1.3,1.4,1.2c1.6-0.3,3.4-1.4,4.8-1.2c3,0.3,5-2.1,7-5.4c0.8-1.4,1.5-3.4,3.1-3.6c0.1,0.3,0.4,0.6,0.4,1 c0,1.7-0.1,3.6,1.3,4.1c1.2,0.5,2.5,0.4,3.7-0.7c0.4-0.4,0.9-1.6,0.9-2.2c0-0.7-0.6-1.3-1-1.8c-0.6-0.8-1.1-1.8-0.3-3.2 c0.4-0.7,1.1-1.3,1.7-1.6c10.2-3.8,20-3,30.1-5.4c0.3-0.1,0.6,0,0.9,0.2c3,1.2,6.2,0.2,9.6-1.4c1.3-0.6,2.7-1.6,3.9-1.6 c6.7-0.2,13.6-2.1,20-0.9c2.5,0.5,5.1,1,7.6-0.8c4.1-3.1,7.8-3,11.6-3.3c3.2-0.3,6.4-0.7,9.7-2.5c0.8-0.4,1.5,1.1,1.3,2.5 c-0.1,0.9-0.2,1.8-0.4,2.7c-1.7,7.7-2.7,15.3-1.7,22.3c2.2-2.6,4-3.4,5.6-0.5c0.7,1.4,2.6,0.4,3.1-1.4c2.2-6.6,4.3-13.3,4.2-20 c0-0.3,0.5-1.1,0.7-1.1c0.6,0.1,1.4,0.1,1.5,0.6c0.5,1.8,0.8,3.9,1.2,5.8c0.1,0.3,0.4,0.7,0.6,0.6c0.6-0.2,1.4-0.4,1.7-1 c0.9-1.6,1.7-3.3,2.2-5c0.9-2.9,2.3-4.9,4.4-6.4c1.9-1.4,3.8-2.6,5.8-2.8c3.5-0.3,7.1-0.8,10.5-0.6c3.5,0.2,6.9-0.1,10.5-0.8 c7.5-1.6,14.9-2.9,22.2-3.1c2.5-0.1,5.2-0.8,7.8-1.6c6.9-2.1,13.7-4.1,20.5-4.6c0.6,0,1.4-0.6,1.8-1.2c0.5-0.6,0.9-1.7,0.9-2.4 c0-0.7-0.5-1.4-0.9-1.9c-0.7-0.7-1.5-1.1-2.2-1.7c-0.9-0.8-1.3-2.3-0.6-3.2c0.7-1,1.6-2.3,2.5-2.7c2.9-1.4,5.9-2.3,8.8-3.9 c2.7-1.4,5.2-2.1,7.7-1.7c2.2,0.3,4.5-0.4,6.7-2.6c3-2.8,5-1.6,6.8,0.5L242,608c0.9-0.7,1.6-0.5,2,0.5l0-0.1 c1.1-1.3,2.3-2.5,3.4-3.8c2.2-2.7,4.4-3.1,6.5-2.4c0.8,0.3,1.5,1.2,2.3,1.6c1,0.4,1.8-0.4,2.6-1.8c0.6-1.1,1.2-2.2,1.8-3.3 c2.9,0.5,5.7,1,8.4,1.5c1.7,0.3,2.5,1.9,2,4.5c-0.6,3.2,0.2,5,2.1,5.9c0.9,0.5,2-0.5,2.2-2.1c0.1-0.9,0-1.7,0.1-2.6 c0.3-2.5,1-3.4,2.7-3.3c1.2,0.1,2.5,0.2,3.6,0.7c0.4,0.2,0.5,1.3,0.6,2c0,0.3-0.2,0.9-0.4,1.3c-0.4,0.8-1,1.5-1.4,2.3 c-0.7,1.2-1.3,2.4-0.9,3.7c0.4,1.1,2.3,1.1,3.5-0.1c1.8-1.7,3.5-3.7,5.3-5.4c0.5-0.5,1.4-0.9,1.9-0.7c2.8,1.1,5.6,2.3,8.4,3.6 c0.2,0.1,0.4,0.7,0.3,1.1c-0.2,0.8-0.4,1.9-0.8,2.4c-1.7,2.1-3.7,3.2-5.7,3.7c-1.6,0.4-3.1,0.3-5.1,0.5c0.5,1.6,0.7,2.6,1.1,3.6 c1.6,4.1,4.3,5.7,8.1,5.5c12.1-0.5,24.4-2.6,36.8-4.8c1.9-0.4,3.9-0.9,5.9-1.8c3.4-1.6,6.5-1.7,9.6-1.2 c7.3,1.2,14.8,1.4,22.8-0.7c4.8-1.3,10-2.5,14.1-0.3c3.4,1.8,7.2,1.6,11.1,0.4c2.5-0.8,4.4-0.1,6.2,1l-0.1,0.1 c2.2-2,4.5-2.9,6.7-2.4c4.2,0.9,8.4,1.9,12.9,1.4c1.6-0.2,3.1,0.3,4.5,0.8c4.4,1.4,9.2,1.3,14,0.7c3.9-0.5,7.8-1.1,11.6-1.5 c3.6-0.4,7.1-0.5,9.9,1.8c1.1,0.9,2.5-0.5,3.8-0.6c0.3,0,0.6,0.3,0.6,0.6c0.1,0.3,0,0.9-0.2,1.3c-1.2,2.7-2.9,4.6-4.9,5.8 c-1.6,1-3.2,1.6-4.9,2.6c-0.7,0.4-1,1.4-0.7,2.2c0.1,0.3,0.3,0.7,0.6,0.7c6.3,0.2,12.5,1.1,18.9,0.4c5-0.6,9.4-0.2,12.8,3.7 c0.2,0.2,0.6,0.2,0.8,0.4c1.1,0.6,2.3,0.7,3.7-0.2c1.6-1,3.2-2.1,4.8-3c1.6-0.9,3.4-1.5,4.7-0.7c2.5,1.6,5.4,1.1,8.4,0.2 c5-1.5,9.6-0.5,14.2-0.3c1.4,0.1,2.4,1.6,3.6,2.5c-6.2,5.2-12.2,5.4-18.2,6c-2.9-1.6-6-1-9.4,0.9c-1.2,0.7-2.6,0.5-3.9,0.8 c-4.9,0.9-9.7,1.1-14.6,2.8c-4.4,1.5-8.4,0.9-12.6,2.4c-4.4,1.6-8.3,1.2-12.3,0.5c-0.9-0.1-1.9,0-2.9,0.2 c-5.3,1.2-10.3,1.2-15.4,1.4c-5.4,0.2-10.9,0.8-16.4,2.1c-2.3,0.5-4.7,1.1-6.7,0.8c-3.4-0.6-7,0.3-10.6,1.1 c-2.9,0.6-5.9,1.5-8.7,1.4c-2.5-0.1-5.1,0.2-7.7,0.7c-7.1,1.3-14.2,1.9-21,1.4c-3.1-0.2-6.2-0.3-9.4,0c-4.5,0.4-8.9,0.7-13.5,2.2 c-3.3,1.1-6.5,1.1-9.7,1.7c-1.7,0.3-3.1-0.3-4.4-1.2l0.1-0.1c-2.9,2.4-5.8,3.6-8.5,2.5c-4.5-1.6-9.2-0.5-14.3,2.3 c-1.6,0.9-3.4,1.4-4.8,1.2c-8.9-1.4-18.2-0.1-27.7,2.6c-1.3,0.4-2.6,0.7-3.9,0.8c-2.9,0.3-5.8,0.9-8.8,2.6 c-3.3,1.8-6.5,2.3-9.6,1.7c-3.3-0.7-6.9-0.4-10.5,0.5c-2.3,0.5-4.5,0.7-6.8,1c-2.6,0.4-5.1,0.7-7.7,1.2c-7.5,1.4-15,3.4-22.4,4.3 c-11.6,1.4-23.1,2.1-34.7,3.2c-8,0.8-15.9,0.5-24.1,3.6c-7.3,2.7-14.3,3.1-21.3,3.4c-7,0.3-14.1,1.2-21.2,2.1 c-2.2,0.3-4.7,0.7-6.8,2.1c-4.3,2.8-8.5,3.1-12.7,5.1c-4.6,2.1-9.2,2.8-13.5,1.9c-4-0.8-8.2,0-12.5,1.6c-2.6,1-5.3,2-7.9,2.9 c-3.4,1.2-6.5,1.3-9.1-0.8c-3.3-2.6-7.1-1.6-11.1,0.9c-1.9,1.2-3.8,2.7-5.7,4c-1.1,0.7-2.8-0.5-2.7-2c0.2-2.2,0.6-4.4,1-6.7 l0.1,0.1c-0.3-1.1-0.7-2.3-1-3.4l0,0.1c-1.1,1.2-2.5,2.3-3.4,3.7c-1.4,2.3-2.5,4.9-3.5,7.5c-0.7,1.6-1.6,3.3-1.1,5.1 c0.6-0.2,1.3-0.7,1.9-0.6c0.5,0,1.1,0.4,1.5,0.8c0.1,0.1,0.1,0.9-0.1,1.3c-2.8,5.2-6.1,10.1-7.1,16.4c-0.7,4.1-0.2,6.2,2.8,5.5 c2.9-0.7,4.7,0.1,6.3,2.7c1.1,1.9,4,0.2,5-2.4c1-2.6,1.8-5.3,2.9-7.9c0.5-1.3,1.2-2.7,2.1-3.5c6.3-5.7,12.7-9.7,19.1-7.9 c3,0.8,6.1,1,9.2,1.1c7.2,0.3,14.3,0.9,21.3,1.4c0.5,1.4,0.8,2.6,1.3,3.5c0.3,0.4,1.4,0.4,1.6,0.1c2.2-4.3,5-5.5,8.1-5.8 c5.5-0.5,10.9-1,16.4-1.6c4.2-0.4,8.4-0.9,12.7-4.4c0.9-0.7,2-1.2,2.9-1.3c5.8-0.7,11.8-2.3,17.2-0.9c3.3,0.9,6.8,0.9,10.3,0.4 c11.3-1.6,22.5-1.9,33.9-3.9c7.2-1.3,14.3-2.2,21.4-3c10.3-1.3,20.6-2.4,31-3.5c2.3-0.2,4.6-0.8,6.8-2.9c2.1-2.1,3.7-1.7,5.4-0.8 c2.5,1.4,5.3,1.3,8.4-0.7c2-1.3,3.9-1.8,5.7-1.1c1.7,0.7,3.7,0.5,5.7-0.2c3.7-1.2,7.2-1.3,10.5-0.8c3.1,0.5,6.3,0.2,9.6-1.7 c3.3-1.9,6.5-2.4,9.6-1.6c3,0.8,6.2,0.5,9.5-0.5c3.6-1.1,7.1-0.5,10.7-3.7c8.1-1.4,16.2-2.9,23.2,0.8c2.2,1.2,4.6,1.3,7.4,0.3 c3.3-1.2,6.5-2,9.8-2.9c0.8-0.2,1.4,1.8,0.9,2.9c-0.2,0.4-0.3,0.9-0.6,1.2c-0.5,0.7-1.1,1.4-1.6,2.1c-1.3,2-1.3,3.4,0,4.1 c5.4,2.6,11.5,2.2,17.6,1.3c3.9-0.5,7.8-1.4,11.4-0.4c1.7,0.5,4-0.8,5.7-0.2c2.1,0.8,4.2,0.8,6.4,0.5c4.2-0.6,8.5-1.8,12.3-0.4 c0.8,0.3,1.9,0.2,2.8-0.1c6.9-1.6,13.4-1,20.2-1.9c1.9-0.2,3.8-0.2,5.8-0.6c4.3-0.9,8.4-1.3,12.4-0.9c4.2,0.4,8.4-2.1,12.5-5.1 c1-0.7,1.8-3.5,1.5-4.9c-0.4-1.6-1-3.1-2.3-3.1c-2.8-0.2-5.7-0.1-8.5,0.1c-8,0.7-16.2,2.4-24.3,3.3c-15.8,1.7-31.6,3.6-47.3,4.6 c-3.8,0.2-7.6,0.4-11.3,0.6c1.9-3.2,3.9-5.5,6.7-4.8c1.2,0.3,2.8-0.8,3.6-2.4c2.2-4.1,5.2-4.8,8-6.4c0.4-2.9-2.9-1.2-2.2-4.4 c2.5-0.7,5.1-1.7,7.7-2.1c1.2-0.2,2.3,0.7,3.4,1.1l-0.2,0.1c1.6-0.5,3.2-1.2,4.7-1.5c2.1-0.4,2.6,0.9,2,4.9 c-0.1,0.4-0.2,0.8-0.3,1.2c1.9,0.5,3.9,0.4,6.1-1.2c-0.2-0.6-0.5-1.2-0.7-1.9c-0.3-1.6,0.3-2.7,1.4-3.1c4.5-1.7,9-2.5,13.3-2.1 c3.2,0.3,4.7,2.5,4.7,6.9c0,0.8,0,1.6,0,2.3c1.2-1.1,2.4-2.2,3.6-3.2c1.4-1.3,1.8-2.8,1.8-4.7c0-0.6,0.7-1.9,1.2-2.1 c2.9-1.4,5.8-2.7,8.7-3.8c2.6-1,5.3-1.2,7.1-5.2c2.8-2.3,5.7-3.2,8.6-3.6c0.6-0.1,1.2,0.3,1.6,0.8c1.1,1.2,1.9,2.7,3,3.9 c0.6,0.7,1.5,1.3,2.4,1.1c4.8-0.9,9.6-0.7,14.1-6.6c0.9-1.1,1.9-1,2.2,0.5c0.5,2.2,1.5,3.3,3.4,2.3c1.9-1,3-0.4,3.9,1.3 c0.6,1.1,1.6,0.4,2.5-0.7c1.3-1.7,2.6-3.4,3.9-5.1c1.5-0.6,2.9-1.2,4.4-1.8c2.7-2.5,2.8-2.5,3.9-0.5c2.1,3.7,3.7,4.2,7.1,0.8 c2.2-2.3,3.5-2.4,5.1-0.9c1.7,1.7,4,1.4,6.3,0.7c0.5-0.2,1.2-1.1,1.6-1.8c0.5-1.2,0.8-2.5,1.3-3.8c0.8,0.3,1.5,0.4,1.9,0.8 c1.4,1.8,3.4,1.2,5.4,0.2c2.1-1,3.4-5,2.2-6.7c-1-1.3-2.5-1.9-2.8-4.2c-0.1-0.8-0.1-1.8,0.2-2.5c0.3-0.7,1.1-1.5,1.6-1.6 c3.2-0.4,6.1,0.6,9.5-0.2c10.1-2.4,20.2-4.4,30.1-5.4c5.5-0.6,11.1-2.1,16.4-1.9c10.4,0.4,21.3-2.9,31.9-4 c1.3-0.1,2.6-0.6,3.9-1.4c3.7-2.3,7.2-2.8,10.7-3.2c8.4-1,16.8-2,25.2-3c6.1-0.7,12.3-2,18.4-2.1c6.7-0.1,13.5-1,20.2-1.9 c2.3-0.3,4.5-0.7,6.8-0.7c7.9,0,16-1.1,24.1-2.8c5.5-1.1,11-1.8,16.4-1.8c3.5,0,6.9-0.1,10.6-1.7c1.6-0.7,3.3-1,4.9-1.2 c7.7-0.7,15.3-0.8,23.2-3.7c1-0.4,1.9-0.3,2.9-0.4c6.1-0.4,11.9,0.5,18.3-2.8c0.3-0.2,0.7-0.2,1-0.2c6.7,1.3,13.9-0.4,21-1.4 c0.3,0,0.7-0.1,0.9,0.1c2,1,4.2,1.2,6.5,0.1c2.7-1.3,5,0.5,7.7-1.7l-0.1,0.1c0.5,0.3,1,1,1.6,1c5.8-0.6,11.6-1.3,17.4-2 c3.6-0.4,7.1-0.9,10.6-1.1c1.6-0.1,3.3-0.3,4.6,0.4c3.1,1.7,6.7,0.9,10,1.4c6,0.9,12.1-0.7,18.4-2.4c2.3-0.6,4.6-1.5,6.9-2 c7.5-1.4,15-2.7,22.5-4c6.8-1.2,13.8-3.8,20.6-6.2c10.5-3.6,21-7.6,31.4-8.1c1.9-0.1,3.9-1,5.9-1.5c6.5-1.6,13.1-3.7,18.7-0.4 c0.5,0.3,1.2,0.3,1.8,0.4c2.7,0.2,5.2-1.2,7.6-4c1.1-1.3,2.2-2.8,3.1-4.4c1.6-2.8,3-5.7,4.5-8.6c1.6-3.2,3.7-4.9,6.1-5.3 c0.7-0.1,1.3-0.2,1.9-0.2c4.2,0.3,7.7-2.9,11.1-7.1c1.2-1.6,1.6-4.9,0.4-6c-1.4-1.3-3.1-2.1-4.3-3.6c-1.4-1.8-2.5-4.1-3.7-6.2 c-0.2-0.3-0.5-0.3-0.8-0.5c-0.8-0.4-1.9-0.5-2.3-1.4c-0.7-1.7,0.8-3.3,1.6-4.9c1-2.3,0.9-4.4,1-6.6c0.1-2.4,0.9-4.5,2.5-6.2 c1.4-1.6,2.9-3,4.3-4.7c2.3-2.7,4-5.7,5.2-9.5c1.3-4.4,3.2-8.6,4.8-12.9c-1.3,0.3-2.5,0.5-3.8,0.7c-0.2,0-0.7-0.4-0.6-0.6 c0.2-0.8,0.4-2.1,0.8-2.3c5.8-3.1,11.7-6.1,17.5-9.1c1.6-0.8,3.3-1.5,4.9-2.4c0.4-0.3,0.8-1.4,1.1-2.2c0.1-0.2-0.2-0.8-0.4-0.9 C1078.4,454.4,1075.8,455.4,1074.5,453.1z M1022.7,357.5c0.6-0.3,1.5-1.2,1.7-1c0.8,1,1.5,2.1,2,3.5c0.7,1.8,0,3.7-1.3,4.4 c-1.4,0.7-2.2,0.1-2.6-2C1022,360.1,1022,359.3,1022.7,357.5z M925.4,399.2l-0.5,0.6l-0.1-0.7L925.4,399.2z M921.4,409.5 c0.6-1.3,1.5-1.6,2.4-1.6c0.7,0,1.1,0.6,0.8,1.4c-0.2,0.6-0.9,1.3-1.4,1.5C922,411.3,921,410.5,921.4,409.5z M914.5,407.1 c0.5,0.2,1.2,0.1,1.3,0.5c0.1,0.5-0.4,1.4-0.6,2.2c-0.5-0.1-1.2-0.1-1.3-0.5C913.9,408.8,914.3,407.8,914.5,407.1z M903.4,409.7 c0.9-0.4,1.8-0.3,2.6-0.3c0.2,0,0.5,0.5,0.5,0.7c-0.2,0.7-0.4,1.8-0.8,2.1c-0.9,0.6-1.8,0.8-2.6,1.1c-0.4-0.7-1-1.1-0.9-1.7 C902.2,411,902.9,409.9,903.4,409.7z M895.1,411.1c0.7,0.1,0.8,0.9,0.5,1.8c-0.1,0.4-0.5,0.8-0.8,0.9c-0.6,0.3-1.3,0.7-1.9,0.6 c-2-0.2-4-0.5-6-0.8C889.7,411.4,892.4,410.8,895.1,411.1z M882.9,412c1.6-0.5,2.6,0.6,3.6,1.6c-1.5,0.8-3,1.5-4.3,0.9 c-0.2-0.1-0.5-0.4-0.5-0.7C881.7,412.8,882.1,412.2,882.9,412z M1050.9,196.2c0.2-0.2,0.5-0.2,0.7-0.3c0,0.3,0,0.8-0.1,1 c-0.2,0.2-0.5,0.2-0.7,0.3C1050.8,196.8,1050.7,196.4,1050.9,196.2z M1022.7,82.2c0.6-0.3,1.5-1.2,1.7-1c0.8,1,1.5,2.1,2,3.5 c0.7,1.8,0,3.7-1.3,4.4c-1.4,0.7-2.2,0.1-2.6-2C1022,84.8,1022,84,1022.7,82.2z M925.4,123.9l-0.5,0.6l-0.1-0.7L925.4,123.9z M921.4,134.3c0.6-1.3,1.5-1.6,2.4-1.6c0.7,0,1.1,0.6,0.8,1.4c-0.2,0.6-0.9,1.3-1.4,1.5C922,136.1,921,135.2,921.4,134.3z M914.5,131.8c0.5,0.2,1.2,0.1,1.3,0.5c0.1,0.5-0.4,1.4-0.6,2.2c-0.5-0.1-1.2-0.1-1.3-0.5C913.9,133.5,914.3,132.6,914.5,131.8z M903.4,134.5c0.9-0.4,1.8-0.3,2.6-0.3c0.2,0,0.5,0.5,0.5,0.7c-0.2,0.7-0.4,1.8-0.8,2.1c-0.9,0.6-1.8,0.8-2.6,1.1 c-0.4-0.7-1-1.2-0.9-1.7C902.2,135.7,902.9,134.7,903.4,134.5z M895.1,135.8c0.7,0.1,0.8,0.9,0.5,1.8c-0.1,0.4-0.5,0.8-0.8,0.9 c-0.6,0.3-1.3,0.7-1.9,0.6c-2-0.2-4-0.5-6-0.8C889.7,136.1,892.4,135.5,895.1,135.8z M882.9,136.7c1.6-0.5,2.6,0.6,3.6,1.6 c-1.5,0.8-3,1.5-4.3,0.9c-0.2-0.1-0.5-0.4-0.5-0.7C881.7,137.6,882.1,137,882.9,136.7z M-5.1,236c-1.9-0.3-3.6-0.7-4.4-3.2 c1.2-0.3,2.3-1.1,3.4-2.4c2.8-3.4,2.9-3.3,3.1,0.8c0,0.6,0.3,1.1,0.4,1.8C-2.6,234.8-3.7,236.2-5.1,236z M-5.8,338 c-2.4-0.4-4.7-0.9-5.6-4c1.6-0.4,2.9-1.4,4.3-3.1c3.6-4.4,3.7-4.3,3.9,1c0,0.8,0.4,1.5,0.5,2.3C-2.6,336.5-4,338.3-5.8,338z M29.9,197.8c1-2.1,2.1-2.9,3.2-2.2c0,0,0.1,0.1,0.1,0.1c-0.3,0.1-0.6,0.2-0.9,0.4c-0.9,0.5-1.9,1.6-2.4,2.7 c-0.7,1.4,0,2.4,0.9,2.9c0.1,0.1,0.2,0.2,0.4,0.2C29.4,202,28.8,200,29.9,197.8z M34.4,268.7c-0.3,0.6-1.3,1.1-1.9,1 c-2.8-0.3-5.4-0.8-8.5,0.1c-0.8,0.2-1.5-0.3-2.3-0.9c4.4-0.6,8.8-0.9,13.2-1.9c0.1,0,0.2,0,0.3,0.1 C35,267.5,34.7,268.1,34.4,268.7z M35.7,159.1c-0.6-0.3-0.7-1.7-0.2-2.5c1.3-1.9,3.1-2.6,4-1.5c0.3,0.3,0.1,1.2,0.2,1.8 c-0.4,0.6-0.7,1.3-1.1,1.6C37.5,159.4,36.5,159.5,35.7,159.1z M37.7,197.6c0.2,0,0.4,0.1,0.6,0.1c0.7,0.2,1.4,0.1,1.6,1.3 c0,0.3-0.1,0.6-0.4,0.8c-0.6-0.4-1.2-1-1.6-2C37.8,197.8,37.7,197.7,37.7,197.6z M48.3,293.3c-2.6,0.4-5.1,0.8-7.7,1.1 c-2.3,0.2-3-2.4-1.6-5.3c1.3-2.7,2.7-3.7,4.1-2.8c0.8,0.5,1.5,1.2,1.9,1.5c1.8,0.5,3.2,0.9,4.7,1.3c0.9,0.2,1.8,0.2,2,1.7 C51.9,291.7,50.3,292.9,48.3,293.3z M41.6,185.4c-0.1-0.4,0.2-1.2,0.4-1.7c0-0.1,0.5-0.3,0.7-0.2c0.5,0.2,0.5,0.8,0.1,1.6 C42.3,185.8,41.8,186,41.6,185.4z M55.5,272.7c-0.6,0.9-1.2,1.3-1.5,0.5c-0.2-0.5,0.2-1.5,0.5-2.2c0.1-0.2,0.6-0.4,0.8-0.3 C56,271,56,271.7,55.5,272.7z M60.3,157.2c-0.4,0.6-0.7,1.3-1.1,1.7c-1,0.8-2,1.4-3,2.1c-0.8,0.6-1.2,1.9-1,2.8 c0.3,1.1,0.8,2.2,1.2,3.3c0.3,0.9-0.1,2.5-0.7,2.9c-2.7,1.9-5.2,4.5-8.2,4.6c-1.7,0-3.5,1.4-5.3,1.9c-1.3,0.4-2.6,0.4-3.4-0.8 c-0.4-0.6-0.8-1.8-0.6-2.5c0.7-2,1.8-3.9,2.6-5.9c0.7-2,1.2-4.2,1.9-6.2c0.6-1.8,1.8-3.4,3.1-3.8c3.8-1.1,7.7-2.9,11.5-4.8 c1.5-0.8,3.3,1.4,3.3,3.6C60.5,156.5,60.3,156.8,60.3,157.2z M-5.1,511.3c-1.9-0.3-3.6-0.7-4.4-3.2c1.2-0.3,2.3-1.1,3.4-2.4 c2.8-3.4,2.9-3.3,3.1,0.8c0,0.6,0.3,1.1,0.4,1.8C-2.6,510.1-3.7,511.5-5.1,511.3z M-5.8,613.3c-2.4-0.4-4.7-0.9-5.6-4 c1.6-0.4,2.9-1.4,4.3-3.1c3.6-4.4,3.7-4.3,3.9,1c0,0.8,0.4,1.5,0.5,2.3C-2.6,611.7-4,613.6-5.8,613.3z M370.3,682.3 c0.1,0.2,0.1,0.4,0.2,0.6c-0.3-0.3-0.5-0.5-0.8-0.8C369.9,682.2,370.2,682.2,370.3,682.3z M365.4,689.7c-0.2-0.2-0.3-0.6-0.3-1 c0-0.4,0.3-1,0.5-1.1c1.8-1,3.6-1.8,5-4.2c0.6,2.1,1.2,4.2,1.8,6.3C369.8,691.2,367.4,691.6,365.4,689.7z M497.9,649.9 c0.2,0.1,0.5,0,0.6,0.2c0.1,0.2,0.1,0.4,0.2,0.7C498.5,650.5,498.2,650.2,497.9,649.9z M853.2,417.2c1.6-1.3,3.1-1.5,4.6-1 c0.2,0.1,0.3,0.6,0.5,0.9c-0.1,0.4-0.2,1-0.4,1.2c-1.6,1.5-3.1,1.4-4.5,0.9c-0.2-0.1-0.4-0.5-0.4-0.9 C852.9,418.1,853,417.4,853.2,417.2z M850.4,439.8c3.8-2.8,7.6-4.2,11.4-3.8c0.3,0,0.6,0.5,0.6,0.7c-0.2,0.8-0.4,1.8-0.8,2.4 c-0.5,0.6-1.2,0.9-1.9,1.3c-0.6,0.4-1.3,0.6-1.9,0.9c0.1,0.7,0.3,1.4,0.4,2.2c0.1,0.4,0.2,0.8,0.1,1.2c-0.1,0.4-0.6,0.9-0.8,0.9 c-2.7-0.5-5.4-0.9-7.1-3.7C850,441.5,850.2,439.9,850.4,439.8z M843.5,443.4c-0.2-0.1-0.5,0-0.6-0.2c-0.1-0.2-0.1-0.4-0.2-0.6 C842.9,442.8,843.2,443.1,843.5,443.4z M839.8,441.5c0.5-0.4,1.2-0.9,1.6-0.8c0.4,0.2,0.7,1,1,1.5c-0.5,0.4-1.1,0.8-1.6,0.9 c-0.5,0.1-1-0.3-1.4-0.5C839.4,442.6,839.6,441.7,839.8,441.5z M834.4,418.6l0.1,0.9l-0.7-0.1L834.4,418.6z M829.3,441.9 c0.5,0.1,1,0.1,1.5,0.1c-0.5,0.3-1.1,0.7-1.6,0.9c-0.3,0.1-0.8,0.2-0.8,0C828.1,442.2,828.4,441.8,829.3,441.9z M809.1,339.1 c0.2-0.2,0.5-0.1,0.8-0.2c1.6-0.4,3.3,0.7,3.4,2.2c0,0.2-0.1,0.5-0.2,0.7c-3.6,0.7-7,0.6-10.3-0.1c-0.6-0.1-1.2-0.2-1.8-0.3 C803.7,341.5,806.3,341.8,809.1,339.1z M853.2,142c1.6-1.3,3.1-1.5,4.6-1c0.2,0.1,0.3,0.6,0.5,0.9c-0.1,0.4-0.2,1-0.4,1.2 c-1.6,1.5-3.1,1.4-4.5,0.9c-0.2-0.1-0.4-0.5-0.4-0.9C852.9,142.8,853,142.1,853.2,142z M850.4,164.5c3.8-2.8,7.6-4.2,11.4-3.8 c0.3,0,0.6,0.5,0.6,0.7c-0.2,0.8-0.4,1.8-0.8,2.4c-0.5,0.6-1.2,0.9-1.9,1.3c-0.6,0.4-1.3,0.6-1.9,0.9c0.1,0.7,0.3,1.4,0.4,2.2 c0.1,0.4,0.2,0.8,0.1,1.2c-0.1,0.4-0.6,0.9-0.8,0.9c-2.7-0.5-5.4-0.9-7.1-3.7C850,166.3,850.2,164.6,850.4,164.5z M843.5,168.1 c-0.2-0.1-0.5,0-0.6-0.2c-0.1-0.2-0.1-0.4-0.2-0.6C842.9,167.6,843.2,167.9,843.5,168.1z M839.8,166.3c0.5-0.4,1.2-0.9,1.6-0.8 c0.4,0.2,0.7,1,1,1.5c-0.5,0.4-1.1,0.8-1.6,0.9c-0.5,0.1-1-0.3-1.4-0.5C839.4,167.3,839.6,166.4,839.8,166.3z M834.4,143.3 l0.1,0.9l-0.7-0.1L834.4,143.3z M829.3,166.7c0.5,0.1,1,0.1,1.5,0.1c-0.5,0.3-1.1,0.7-1.6,0.9c-0.3,0.1-0.8,0.2-0.8,0 C828.1,166.9,828.4,166.5,829.3,166.7z M809.1,63.9c0.2-0.2,0.5-0.1,0.8-0.2c1.6-0.4,3.3,0.7,3.4,2.2c0,0.2-0.1,0.5-0.2,0.7 c-3.6,0.7-7,0.6-10.3-0.1c-0.6-0.1-1.2-0.2-1.8-0.3C803.7,66.2,806.3,66.5,809.1,63.9z M797.7,36.4c0.5-0.3,1.2-0.9,1.3-0.7 c0.6,0.8,1.2,1.7,1.5,2.7c0.5,1.4,0,2.9-1,3.4c-1.1,0.5-1.7,0.1-2.1-1.5C797.1,38.4,797.2,37.8,797.7,36.4z M792.6,63.8 c1.1-0.5,2-0.1,2.5,1.1c0.2,0.5,0.5,1,0.8,1.4c-0.5,0.1-1,0.2-1.5,0.4c-4,1.4-7.8,1.4-11.4,0.6c-0.4-0.1-0.9-0.1-1.3-0.1 C785.2,66.2,788.9,65.5,792.6,63.8z M768.2,70.4c2.3-0.3,4.6,0.2,6.8-0.9c1.1-0.5,2.2-0.9,3.3-1.3c-1,0.6-1.9,1.3-2.9,2.4 c-0.6,0.6-1.2,1.3-1.8,1.7c-1.7,1.4-3.2,1.4-4.5,0.2c-0.5-0.5-1-1.1-1.6-1.7C767.7,70.6,768,70.4,768.2,70.4z M721.7,68.9 l-0.4,0.4l-0.1-0.6L721.7,68.9z M720.5,75.8c0.4,0,0.6,0.3,0.6,0.6c-0.1,0-0.2,0-0.3,0c-0.6,0-1.3,0.1-1.9,0.1 C719.4,75.9,719.9,75.8,720.5,75.8z M713.3,75.1c0.4,0.1,1,0.1,1,0.4c0.1,0.4-0.2,1-0.4,1.6c-0.1,0-0.3,0-0.4,0.1 c-0.3,0-0.7-0.1-0.7-0.3C712.7,76.4,713.1,75.7,713.3,75.1z M704.5,77.1c0.7-0.3,1.4-0.3,2.1-0.3c0.2,0,0.4,0.4,0.4,0.6 c-0.1,0.6-0.3,1.4-0.6,1.6c-0.7,0.5-1.4,0.6-2.1,0.9c-0.3-0.5-0.8-0.9-0.7-1.4C703.6,78.1,704.2,77.3,704.5,77.1z M698.1,78.2 c0.4,0,0.5,0.4,0.4,0.9c-0.1-0.1-0.1-0.3-0.2-0.4c-0.1-0.2-0.4-0.3-0.5-0.5C697.9,78.2,698,78.2,698.1,78.2z M693.2,79.1 c-0.2,0.3-0.5,0.6-0.7,1c-0.2,0-0.3,0.1-0.5,0.1c-0.1,0-0.3,0-0.4-0.1C692.2,79.7,692.7,79.4,693.2,79.1z M688.6,78.9 c1.3-0.4,2,0.5,2.8,1.2c-0.3,0.2-0.6,0.3-0.9,0.5c-0.5,0.1-1,0.3-1.6,0.4c-0.3,0-0.6,0-0.9-0.2c-0.2-0.1-0.4-0.3-0.4-0.6 C687.6,79.5,688,79.1,688.6,78.9z M650.7,84l0.1,0.7l-0.5-0.1L650.7,84z M631.2,87.5c0.5-0.3,1-0.4,1.5-0.3 c1.1,0.1,2.2,0.4,3.4,0.6c-1.8,2-3.7,3.4-5.5,2c-0.2-0.1-0.3-0.6-0.3-0.8C630.5,88.5,630.8,87.8,631.2,87.5z M625.2,85.8 c0.2,0,0.3,0.8,0.4,1.2c-0.4,0.3-0.8,0.9-1.2,0.9c-0.2,0-0.3-0.8-0.4-1.2C624.5,86.4,624.9,85.8,625.2,85.8z M607.8,88.6 c0.1-0.2,0.3-0.3,0.5-0.5c0.1,0.2,0.3,0.3,0.3,0.5c0,0.2-0.2,0.6-0.3,0.7C607.8,89.7,607.6,89.5,607.8,88.6z M561.9,37.3 c0.1,0.2,0.4,0.3,0.4,0.5c0,0.2-0.3,0.5-0.4,0.7c-0.1-0.2-0.4-0.3-0.4-0.5C561.5,37.8,561.8,37.5,561.9,37.3z M554.5,36 c0.5,0.2,0.6,0.7,0.3,1.3c-0.2,0.4-0.8,0.5-1.2,0.6c0,0-0.2-0.6-0.1-0.7C553.8,36.7,554.2,36.4,554.5,36z M552,85.2 c0.1,0.2,0.3,0.3,0.3,0.5c0,0.2-0.2,0.4-0.4,0.6c-0.1-0.1-0.3-0.3-0.3-0.5C551.6,85.7,551.9,85.4,552,85.2z M540.6,35.5 c-0.1-0.1-0.3-0.1-0.4-0.2c-0.1-0.1-0.1-0.2-0.1-0.3C540.3,35.2,540.5,35.3,540.6,35.5z M134.3,375.8c0.2,0,0.4,0.5,0.3,0.7 c-0.2,0.6-0.6,1.5-0.9,1.6c-1.3,0.6-2.6,1.4-3.8,1.4c-3.3,0-6.6,1.1-10,2.4c0.4-1.7,0.6-3.5,0.8-5.2c0.9-0.3,1.8-0.6,2.7-1.3 c0.1-0.1,0.2-0.1,0.2-0.1c0.2,1.1,0.4,2.2,0.7,3.3c0.1,0.3,0.4,0.7,0.6,0.6c0.6-0.2,1.4-0.4,1.7-1c0.5-1,0.9-2.1,1.4-3.2 C130.1,375.6,132.3,375.4,134.3,375.8z M146.7,371.9c0.1-0.2,0.5-0.3,0.7-0.2c0.5,0.3,0.5,1,0.1,1.7c-0.1,0.2-0.5,0.1-0.7,0.2 C146.4,373.2,146.3,372.6,146.7,371.9z M214.7,368.6c-0.1,0,0.1-0.6,0.1-1c0.7-0.2,1.5-0.6,2.2-0.6c0.4,0,0.6,0.6,1,1 c-0.4,0.4-0.9,1.1-1.3,1.2C216,369.2,215.4,368.8,214.7,368.6z M299.2,305.9c0-1,0.6-1.7,1.3-1.8c0.2,0,0.4,0.5,0.6,0.7 c-0.2,1-0.6,1.7-1.4,1.8C299.5,306.7,299.2,306.2,299.2,305.9z M325.2,240c0.9,0.1,1.8,0.1,2.7,0.1c-0.5,0.6-0.9,1.2-1.2,1.3 C325.8,241.6,325.3,241,325.2,240z M328,301.1c2.4-0.2,4.8-0.3,7.2-0.4c-0.1,0.2-0.3,0.4-0.5,0.5c-0.6,0.3-1.3,0.6-1.9,0.6 C331.1,302,329.5,301.7,328,301.1z M348.5,343.7c7.3,1.2,14.8,1.4,22.8-0.7c2.1-0.6,4.1-1,6.2-1.3c-0.4,0.6-0.6,1.2-0.7,2 c-0.1,0.4-0.1,0.7-0.2,1.1c-0.5,1.6-1.4,2.7-2.5,2.5c-0.9-0.2-1.7-0.8-2.5-1.2c-1.5,2.5-3.4,4.2-5.5,4.6c-4.3,1-8.6,1.8-12.9,2.5 c-1.5,0.2-3,0-4.4-0.2c-1-0.1-1.8-0.8-2.1-2c-0.3-1.1-0.4-2.6-0.9-3.5c-0.6-1.2-1.4-2.6-2.5-2.8c-0.9-0.2-1.8-0.3-2.7-0.5 C343.4,343.4,345.9,343.3,348.5,343.7z M342.2,302.7c0.2-0.3,0.6-0.8,0.6-0.8c0.4,0.4,0.7,0.8,1,1.2c-0.2,0.3-0.5,0.8-0.6,0.8 C342.9,303.5,342.6,303.1,342.2,302.7z M349.5,299.2c1,0,2-0.1,3,0c1.3,0.1,2.6-0.2,4-0.7c-0.2,0.5-0.5,1-0.8,1.2 c-2.3,2-4.5,2-6,0C349.6,299.6,349.5,299.4,349.5,299.2z M335.6,387.1C335.6,387.1,335.6,387.1,335.6,387.1 c0.5-0.4,1.1-0.8,1.6-1.3c1.4-1.4,3.1-1.9,4.5-1.4c1.1,0.5,2.2,0.9,3.4,1C341.9,386.4,338.8,386.5,335.6,387.1z M461.8,374.5 c0-0.1,0-0.1,0-0.2c0.1-0.6,0.6-1.3,0.9-1.7c0.4-0.5,1-0.9,1.4-1c4.2-0.9,8.5-1.7,12.7-2.4c0.7-0.1,1.4,0.2,2,0.6 c0.3,0.2,0.5,1,0.7,1.5c-0.1,0.2-0.2,0.5-0.3,0.7c-3.1,0.5-6,0.4-9.1,1.5C467.1,374.6,464.4,374.7,461.8,374.5z M382.9,345.3 c-0.3,0.4-1.2,0.5-1.3,0.2c-0.5-0.9-0.8-2.2-1.2-3.2c-0.2-0.4-0.4-0.6-0.6-0.8c1.7,0,3.4,0.2,4.9,0.9 C384.1,343.4,383.5,344.5,382.9,345.3z M319.7,350.6c-0.3,0.9-1.6,1.7-2,1.3c-0.6-0.7-1.2-1.5-1.9-2.2c1.5-0.2,2.9-0.5,4.4-0.7 C320.1,349.4,319.9,350,319.7,350.6z M313.2,335.1c-0.3,0.1-0.6,0.3-0.8,0.2c-0.2-0.1-0.3-0.7-0.1-1c0.5-1.1,1-1.2,1.3-0.3 C313.6,334.2,313.3,334.7,313.2,335.1z M311.3,152.5c-0.5,0.1-0.9,0.1-1.6,0.1c-0.1,0-0.1,0-0.2,0c-0.4-0.3-1-0.6-1.5-1 c-0.7-0.7-0.9-2.4-0.5-3.5c0.5-1.4,2.3-2.4,3.4-1.9c1.2,0.5,1.7,1.7,2,3.3C313.3,150.8,312.4,152.4,311.3,152.5z M296.3,354.2 c0,0.1-0.1,0.3-0.1,0.5c0-0.4,0-0.7,0-1.1C296.2,353.8,296.3,354,296.3,354.2z M296.8,356.1c-0.2-0.1-0.4-0.1-0.5-0.2 c-0.1-0.1-0.1-0.3-0.1-0.5C296.4,355.6,296.6,355.9,296.8,356.1z M207.9,370.8c-1.1,1.6-3.2,2.3-4.1,1.3 c-0.2-0.2-0.2-0.6-0.2-0.9c0.3-2.2,2-4.3,3.4-4.2c0.9,0,1.5,1.4,1.3,2.7C208.1,370.2,208.1,370.6,207.9,370.8z M510.5,366.8 c-2.9-1.6-6-1-9.4,0.9c-1.2,0.7-2.6,0.5-3.9,0.8c-4.6,0.8-9.2,1.1-13.8,2.5c0-0.3-0.1-0.5-0.1-0.8c0-0.3,0.1-0.7,0.2-1 c0.2-0.3,0.3-0.8,0.5-0.9c1-0.5,2-1.2,3-1.4c4.6-0.9,9.1-1.6,13.7-2.4c2-0.4,4.1-0.6,6.1-1.5c4-1.7,7.5-1.1,11.2-0.9 c0.4,0,0.9,0.5,1.1,1c0.2,0.5,0.1,1.2,0.1,1.9c0,0.2-0.3,0.6-0.5,0.8C515.9,366.3,513.2,366.5,510.5,366.8z M483.5,93.9 c0.2-0.3,0.3-0.8,0.5-0.9c1-0.5,2-1.2,3-1.4c4.6-0.9,9.1-1.6,13.7-2.4c2-0.4,4.1-0.6,6.1-1.5c4-1.7,7.5-1.1,11.2-0.9 c0.4,0,0.9,0.5,1.1,1c0.2,0.5,0.1,1.2,0.1,1.9c0,0.3-0.3,0.7-0.5,0.9c-0.5,0.4-1,0.8-1.5,1c-0.8,0.3-1.5,0.3-2.3,0.6 c-2.5,1-5.1,2.3-7.6,3.1c-2.3,0.8-4.6,1-6.9,1.6c-1.6,0.4-3.1,0.7-4.4,0.2c-2.7-1.2-5.9,0.1-8.9,0.8c-2.8,0.6-3.6,0.3-3.8-2.9 C483.2,94.6,483.4,94.2,483.5,93.9z M462.7,97.4c0.4-0.5,1-0.9,1.4-1c4.2-0.9,8.5-1.7,12.7-2.4c0.7-0.1,1.4,0.2,2,0.6 c0.3,0.2,0.5,1,0.7,1.5c-0.3,0.6-0.7,1.6-0.9,1.6c-4.8,1.2-9.5,2.2-14.2,3.2c-0.7,0.1-1.4-0.1-2-0.4c-0.3-0.2-0.6-0.9-0.5-1.5 C461.8,98.5,462.3,97.8,462.7,97.4z M423.2,103.8c0.9-0.5,1.8-1.1,2.8-1.6c0.8-0.4,1.5-0.3,1.7,0.8c0.1,0.9,0.2,2.2-0.2,2.9 c-1.4,2.7-3,5.3-4.6,8c-0.1,0.2-0.5,0.2-0.7,0.1c-0.2-0.1-0.3-0.4-0.4-0.6c-0.1-0.3-0.1-0.6-0.1-0.9 C422.2,109.6,422.7,106.9,423.2,103.8z M411.9,114.1c0.7-1.3,1.8-1.8,2.7-1.2c0.6,0.4,0.8,1.5,0.5,2.6c-0.5,1.4-1.7,2.3-2.6,1.8 C411.6,116.9,411.3,115.3,411.9,114.1z M407.7,110.3c0.5-0.7,1-0.6,1.3-0.1c0.1,0.2,0,0.6,0,1c-0.5,1.2-1.4,2.3-1.9,1.9 c-0.2-0.1-0.3-0.6-0.2-0.8C407.1,111.5,407.3,110.8,407.7,110.3z M395.4,113.3l-0.2,0.9l-0.4-0.5L395.4,113.3z M382.4,125.9 c0.1-0.2,0.4-0.1,0.5-0.2c0,0.2,0,0.6-0.1,0.7c-0.1,0.2-0.4,0.1-0.5,0.2C382.3,126.4,382.3,126.1,382.4,125.9z M390,291.1 c2.4,0.3,5.1-0.3,7.6-0.6c6.1-0.8,12.2-1.6,18-2.3c0.7,0.5,1.2,0.9,1.7,1.3c0.5,0.5-0.8,2.2-2.1,2.6c-4.9,1.5-9.8,3.3-14.5,3 c-1.2-0.1-2.5,0.1-3.8,0.4c-5.9,1.6-11.7,2.3-17.3,2.1c-3.8-0.1-7.7,1.5-11.7,2.7c-1.2,0.4-1.9-1.8-1.2-3.6 c0.8-1.9,1.9-3.4,3.2-3.6C376.6,292.4,383.5,290.2,390,291.1z M313.6,124.5c0.9-1.2,0.7-2.7,0.4-3.9c-0.2-1-0.1-2,0.7-2.9 c0.7-0.8,1.8-0.5,2.5,0.7c0.3,0.5,0.3,1.2,0.6,1.7c0.3,0.6,0.8,0.6,1.3,0c0.6-0.8,1.2-1.7,1.8-2.6c0.8-1.2,1.8-2,2.9-2.1 c1-0.1,2,0,3-0.2c3.6-0.6,7.1-1.3,10.6-4.7c1.4-1.4,3.1-1.9,4.5-1.4c1.8,0.7,3.4,1.5,5.7,0.6c1.7-0.7,3.1,1.1,5,0.1 c1.3-0.7,2.4,0.1,3.3,1.1c0.7,0.8,1.7,0.9,2.7-0.2c0.7-0.7,1.4-1.5,2.1-2c1-0.6,2.1-1.2,3-1.2c3.2,0.2,6.3,0.5,9.4,1 c1.2,0.2,1.9,1.5,2,3.3c0.1,1.2-0.8,3.4-1.5,3.8c-3.8,2-7.6,4.1-11.4,6c-0.7,0.3-1.6,0.2-2.1-0.1c-3.1-2.2-6.1-0.6-9,3.8 c-0.2,0.3-0.4,0.6-0.6,0.8c-1,1.1-2,1.7-2.8,0.9c-1.6-1.4-3.2-0.7-4.8,1.6c-1.1,1.5-2.1,2.1-3.5,1.6c-2-0.8-4.4-0.1-6.7,0.7 c-2.6,0.9-5.1,1.7-7.5,1.1c-0.4-0.1-0.8-0.8-0.7-1.2c0.1-0.5,0.6-1.3,1-1.5c1.2-0.8,2.5-1.4,3.7-2.2c0.2-0.1,0.5-0.7,0.4-0.9 c-0.1-0.5-0.3-1.4-0.6-1.4c-1.2,0.1-2.5,0.7-3.8,0.8c-2.5,0.2-4.5,1.7-6,5.2c-0.8,1.8-2,2.7-3.4,2.9c-0.5,0.1-1,0.3-1.5,0.2 c-1.2-0.1-2.3-0.4-3.5-0.6C311.1,130.4,311.5,127.3,313.6,124.5z M305.8,117.7c0.1-0.3,0.4-0.6,0.6-0.7c0.8-0.2,1.4,0.1,1.7,1 c0.1,0.2-0.1,0.6-0.1,1c-0.5,0.3-1,0.8-1.4,0.7C305.8,119.6,305.4,118.6,305.8,117.7z M296.8,80.8c-0.2-0.1-0.4-0.1-0.5-0.2 c-0.1-0.1-0.1-0.3-0.1-0.5C296.4,80.4,296.6,80.6,296.8,80.8z M296.3,79c0,0.1-0.1,0.3-0.1,0.5c0-0.4,0-0.7,0-1.1 C296.2,78.5,296.3,78.7,296.3,79z M282.1,128.2c0.4,0.1,0.8,0.3,1.3,0.4c-0.6,0.5-1.2,1-1.9,1.5 C281.7,129.4,281.9,128.8,282.1,128.2z M235.1,134.1c0.3-0.4,0.9-0.6,1.4-0.5c0.5,0.1,0.8,0.6,1.2,0.8c0.6,0.3,1.4,1,2,0.6 c3.1-2,5.9,0.1,9.1-1.9c1.7-1.1,3.6-1.1,5.2-0.5c3,1.2,6.2,0.9,9.6-0.6c1.5-0.6,3-0.8,4.6-1.2c3.2-0.9,6-0.6,8,2.2 c0.5,0.6,1.1,1.3,1.7,1.3c3.6,0,6.2,2.4,8.7,4.5c2.5-0.5,4.8-1,7.1-1.5c0.8-0.2,1.6-1.5,1.6-2.4c0-1-0.6-1.5-1.5-1.4 c-1,0.2-2,0.5-3,0.6c-0.2,0-0.4-0.3-0.4-0.6c0-0.3,0.1-0.8,0.3-0.9c2.1-1.9,4.3-3.8,6.4-5.8c3-0.1,6-0.3,8.9-0.4 c1,0,1.8,0.7,2.2,1.8c0.7,1.8,1.2,4,2.4,5.2c-0.3,1.3-0.4,2.8-1.1,3.8c-0.6,1-1.7,1.8-2.7,2.2c-2.2,1-4.4,1.7-6.6,2.6 c0.6,0.8,1.2,1.6,1.7,2.6c0.5,1.2,0.3,3.3-0.3,3.7c-0.3,0.2-0.7,0.3-1,0.3c-0.3-0.1-0.7-0.3-1-0.4c-0.1,0.1-0.2,0.3-0.3,0.4 c-0.4-0.1-0.7-0.2-1.1-0.4c-2.6,3.2-2.8,3.3-4.5,1.3c-0.7-0.8-1.3-1.3-2.2-1.5c0.1-0.2,0.2-0.4,0.3-0.5c1-1.3,2.1-2.5,3.2-3.7 c-1.1-2.8-2.6-4.8-5.6-4.2c-3.3,0.6-6.4,0.6-9.3-0.6c-0.7-0.3-2,0.2-2.8,0.9c-4.6,4-9,5.5-13.1,3.2c-0.1-0.1-0.3-0.1-0.4-0.2 c-0.7-1.5-2-2.2-3.6-2.4c-2.9-0.4-5.8-0.5-9,1.8c-0.5,0.3-0.9,0.5-1.4,0.7c-2.2-1.2-4.3-2.6-6.2-4.1c-1.4,0.5-2.7,1.1-4,1.6 c-0.5-0.1-0.9-0.4-1.3-0.7c-1.3-1.1-2.4-2.6-3.5-4.1C234.8,135.7,234.9,134.5,235.1,134.1z M218.2,142.6c0.2-0.3,0.5-0.6,0.7-0.6 c2.5,0,4.9,0.1,7.3,0.2c0.3,0,0.6,0.2,0.8,0.6c-3.1,0.5-6.1,1.1-9.2,1.5c-0.1-0.2-0.1-0.5-0.1-0.7 C217.8,143.3,218,142.9,218.2,142.6z M214.8,92.3c0.7-0.2,1.5-0.6,2.2-0.6c0.4,0,0.6,0.6,1,1c-0.4,0.4-0.9,1.1-1.3,1.2 c-0.7,0-1.3-0.3-2-0.5C214.6,93.3,214.8,92.8,214.8,92.3z M213.1,141.7c0.4-0.1,0.9-0.3,1.3-0.4c0.1,0,0.2,0.5,0.2,0.7 c-0.1,0.3-0.3,0.6-0.5,0.8c-0.5,0.5-1,0.4-1.1-0.3C212.9,142.4,213,142,213.1,141.7z M206.9,91.8c0.9,0,1.5,1.4,1.3,2.7 c-0.1,0.4-0.2,0.8-0.4,1.1c-1.1,1.6-3.2,2.3-4.1,1.3c-0.2-0.2-0.2-0.6-0.2-0.9C203.9,93.8,205.6,91.7,206.9,91.8z M210.6,353.4 c0.6,0,1.4-0.6,1.8-1.2c0.5-0.6,0.9-1.7,0.9-2.4c0-0.7-0.5-1.4-0.9-1.9c-0.7-0.7-1.5-1.1-2.2-1.7c-0.9-0.8-1.3-2.3-0.6-3.2 c0.7-1,1.6-2.3,2.5-2.7c2.9-1.4,5.9-2.3,8.8-3.9c2.7-1.4,5.2-2.1,7.7-1.7c2.2,0.3,4.5-0.4,6.7-2.6c3-2.8,5-1.6,6.8,0.5l-0.1,0.1 c0.9-0.7,1.6-0.5,2,0.5l0-0.1c1.1-1.3,2.3-2.5,3.4-3.8c2.2-2.7,4.4-3.1,6.5-2.4c0.8,0.3,1.5,1.2,2.3,1.6c1,0.4,1.8-0.4,2.6-1.8 c0.6-1.1,1.2-2.2,1.8-3.3c2.9,0.5,5.7,1,8.4,1.5c1.7,0.3,2.5,1.9,2,4.5c-0.6,3.2,0.2,5,2.1,5.9c0.9,0.5,2-0.5,2.2-2.1 c0.1-0.9,0-1.8,0.1-2.6c0.3-2.5,1-3.4,2.7-3.3c1.2,0.1,2.5,0.2,3.6,0.7c0.4,0.2,0.5,1.3,0.6,2c0,0.3-0.2,0.9-0.4,1.3 c-0.4,0.8-1,1.5-1.4,2.3c-0.7,1.2-1.3,2.4-0.9,3.7c0.4,1.1,2.3,1.1,3.5-0.1c1.8-1.7,3.5-3.7,5.3-5.4c0.5-0.5,1.4-0.9,1.9-0.7 c2.8,1.1,5.6,2.3,8.4,3.6c0.2,0.1,0.4,0.7,0.3,1.1c-0.2,0.8-0.4,1.9-0.8,2.4c-1.7,2.1-3.7,3.2-5.7,3.7c-1.6,0.4-3.1,0.3-5.1,0.5 c0.5,1.6,0.7,2.6,1.1,3.6c1.2,3.1,3,4.7,5.5,5.3c-0.2,1.3-0.3,2.6-0.6,3.9c-0.3,1.4-1.2,2.4-2.4,2.5c-1,0-1.9-0.2-2.9-0.3 l0.1-0.1c-1.5,0.5-3.1,1.1-4.6,1.3c-2.3,0.4-4.5,0.4-6.8,0.7c-1.5,0.2-3.2,0.7-4.5,2.2c-3.2,3.8-6.2,4.5-9.3,3.1 c-1.7-0.8-3.7-0.8-5.5-1.4c-2.6-0.9-5.1-0.8-8.1,1.2c-4.1,2.7-8.1,3.1-11.5,0.8c-1.4-0.9-2.9-1.4-4.4-2.1 c-0.5,0.8-1.1,1.6-1.6,2.5c-0.7,1.2-1.4,2.4-2.5,2.4c-1.3,0-2.5-1.7-2.5-3.5c0-0.6,0.3-1.4,0.6-1.9c0.8-1,1.7-1.9,2.5-2.9 c-0.9-2.2-2-3.8-4.3-3.3c-2.6,0.5-5,0.5-7.3-0.5c-0.6-0.2-1.6,0.1-2.2,0.7c-3.6,3.1-7,4.3-10.2,2.5c-0.9-0.5-1.9-0.4-2.9,0.3 c-2.7,2-4.9,1.3-7.2,0.3c-1.4-0.6-2.6-1.4-3.8-2.3C198.1,355.5,204.4,353.8,210.6,353.4z M180.1,347.4l0.5,0.2l-0.5,0.7 L180.1,347.4z M146.7,96.7c0.1-0.2,0.5-0.3,0.7-0.2c0.5,0.3,0.5,1,0.1,1.7c-0.1,0.2-0.5,0.1-0.7,0.2 C146.4,98,146.3,97.4,146.7,96.7z M139.1,364c3.5-0.3,7.1-0.8,10.5-0.6c1.8,0.1,3.7,0.1,5.5-0.1c-1.7,0.6-3.4,0.9-5.1,1.3 c-5.4,1.3-10.6,1.2-16,3.1c-0.7,0.2-1.4,0.3-2.1,0.4c0.5-0.5,0.8-1,1.4-1.4C135.2,365.4,137.2,364.2,139.1,364z M42.1,451.8 c-1.3,0.4-2.6,0.4-3.4-0.8c-0.4-0.6-0.8-1.8-0.6-2.5c0.2-0.5,0.5-1.1,0.7-1.6c3.5-1.8,7-2.6,10.5-1.6c1.7,0.5,3.4,0.7,5.2,0.8 c-2.3,1.8-4.5,3.7-7.1,3.7C45.8,449.9,43.9,451.2,42.1,451.8z M42.7,460.3c-0.4,0.7-1,1-1.2,0.4c-0.1-0.4,0.2-1.2,0.4-1.7 c0-0.1,0.5-0.3,0.7-0.2C43.1,458.9,43.1,459.5,42.7,460.3z M30.7,476.9c0.1,0.1,0.2,0.2,0.4,0.2c-1.7,0.1-2.3-1.9-1.2-4.1 c1-2.1,2.1-2.9,3.2-2.2c0,0,0.1,0.1,0.1,0.1c-0.3,0.1-0.6,0.2-0.9,0.4c-0.9,0.5-1.9,1.6-2.4,2.7 C29.2,475.5,29.8,476.5,30.7,476.9z M32.6,451.6c-0.7,0.6-1.5,1-2.3,1.5l0,0c0.9-0.8,1.8-1.6,2.7-2.3 C32.8,451.2,32.7,451.5,32.6,451.6z M57.1,427.8c1-0.5,2.1,0.3,2.7,1.5c-0.1,0-0.2,0.1-0.4,0.1c-2.6,1-5.3,2-7.9,2.9 c-2.2,0.8-4.4,1-6.3,0.5c0.1-0.1,0.2-0.2,0.4-0.3C49.5,431.4,53.3,429.7,57.1,427.8z M39.1,430.2c-0.5-0.1-1.1-0.2-1.6-0.1 C38,429.8,38.6,429.9,39.1,430.2z M29.5,430.6c0.6,0.3,1.2,0.9,1.4,1.7c0.1,0.2-0.1,0.4-0.1,0.6c-1.7,1.2-3.5,2.4-5.2,3.6 c-1.1,0.7-2.8-0.5-2.7-2c0.1-1.2,0.3-2.4,0.5-3.7C25.6,430.2,27.7,429.7,29.5,430.6z M34.4,543.9c-0.3,0.6-1.3,1.1-1.9,1 c-2.8-0.3-5.4-0.8-8.5,0.1c-0.8,0.2-1.5-0.3-2.3-0.9c4.4-0.6,8.8-0.9,13.2-1.9c0.1,0,0.2,0,0.3,0.1 C35,542.8,34.7,543.3,34.4,543.9z M37.7,472.9c0.2,0,0.4,0.1,0.6,0.1c0.7,0.2,1.4,0.1,1.6,1.3c0,0.3-0.1,0.6-0.4,0.8 c-0.6-0.4-1.2-1-1.6-2C37.8,473.1,37.7,473,37.7,472.9z M48.3,568.5c-2.6,0.4-5.1,0.8-7.7,1.1c-2.3,0.2-3-2.4-1.6-5.3 c1.3-2.7,2.7-3.7,4.1-2.8c0.8,0.5,1.5,1.2,1.9,1.5c1.8,0.5,3.2,0.9,4.7,1.3c0.9,0.2,1.8,0.2,2,1.7 C51.9,566.9,50.3,568.2,48.3,568.5z M55.5,548c-0.6,0.9-1.2,1.3-1.5,0.5c-0.2-0.5,0.2-1.5,0.5-2.2c0.1-0.2,0.6-0.4,0.8-0.3 C56,546.2,56,547,55.5,548z M180,623.5l0-0.9l0.5,0.2L180,623.5z M299.7,581.9c-0.2,0-0.5-0.4-0.5-0.8c0-1,0.6-1.7,1.3-1.8 c0.2,0,0.4,0.5,0.6,0.7C301,581.1,300.5,581.8,299.7,581.9z M301.6,423.6c-0.3,0.2-0.7,0.3-1,0.3c-0.3-0.1-0.7-0.3-1-0.4 c-0.1,0.1-0.2,0.3-0.3,0.4c-0.4-0.1-0.7-0.2-1.1-0.4c-2.6,3.2-2.8,3.3-4.5,1.3c-0.7-0.8-1.3-1.3-2.2-1.5c0.1-0.2,0.2-0.4,0.3-0.5 c1-1.3,2.1-2.5,3.2-3.7c-0.3-0.7-0.6-1.4-0.9-1.9c1.4-0.2,2.8-0.1,4.2,0.2c0.7,0.2,1.4,0.1,2.2,0.2c0.5,0.7,1.1,1.4,1.5,2.2 C302.5,421.1,302.2,423.2,301.6,423.6z M311.3,427.8c-0.5,0.1-0.9,0.1-1.6,0.1c-0.1,0-0.1,0-0.2,0c-0.4-0.3-1-0.6-1.5-1 c-0.7-0.7-0.9-2.4-0.5-3.5c0.5-1.4,2.3-2.4,3.4-1.9c1.2,0.5,1.7,1.7,2,3.3C313.3,426.1,312.4,427.7,311.3,427.8z M313.2,610.3 c-0.3,0.1-0.6,0.3-0.8,0.2c-0.2-0.1-0.3-0.7-0.1-1c0.5-1.1,1-1.2,1.3-0.3C313.6,609.5,313.3,610,313.2,610.3z M326.6,516.6 c-0.8,0.2-1.3-0.4-1.5-1.3c0.9,0.1,1.8,0.1,2.7,0.1C327.4,516,327,516.5,326.6,516.6z M334.7,576.4c-0.6,0.3-1.3,0.6-1.9,0.6 c-1.7,0.2-3.4-0.1-4.9-0.7c2.4-0.2,4.8-0.3,7.2-0.4C335,576.1,334.9,576.3,334.7,576.4z M343.2,579.1c-0.4-0.3-0.7-0.7-1-1.1 c0.2-0.3,0.6-0.8,0.6-0.8c0.4,0.4,0.7,0.8,1,1.2C343.6,578.5,343.3,579.1,343.2,579.1z M355.7,575c-2.3,2-4.5,2-6,0 c-0.1-0.1-0.2-0.3-0.2-0.6c1,0,2-0.1,3,0c1.3,0.1,2.6-0.2,4-0.7C356.2,574.3,355.9,574.8,355.7,575z M415.3,567.2 c-4.9,1.5-9.8,3.3-14.5,3c-1.2-0.1-2.5,0.1-3.8,0.4c-5.9,1.6-11.7,2.3-17.3,2.1c-3.8-0.1-7.7,1.5-11.7,2.7 c-1.2,0.4-1.9-1.8-1.2-3.6c0.8-1.9,1.9-3.4,3.2-3.6c6.7-0.6,13.6-2.8,20.1-2c2.4,0.3,5.1-0.3,7.6-0.6c6.1-0.8,12.2-1.6,18-2.3 c0.7,0.5,1.2,0.9,1.7,1.3C417.9,565.1,416.5,566.8,415.3,567.2z M469.6,559.1c-0.6,0.5-1.2,1.2-1.7,1.3c-0.5,0-1.2-0.5-1.2-1.1 c0-0.6,0.7-1.5,1.1-2.1c0.2-0.3,0.7-0.6,0.9-0.4c0.5,0.2,0.9,0.6,1.2,1.1C470.1,558,469.8,558.7,469.6,559.1z M489.4,617.2 c-0.2,0.7-1.1,1.8-1.3,1.8c-4.7-1.1-10,1-14.8,0.4c-0.2,0-0.5-0.5-0.5-0.7c0.2-0.8,0.4-2.1,0.8-2.4c2.4-1.8,4.9-3.4,7.4-5.1 c2.8,1.3,5.6,2.4,8.2,3.8C489.5,615.2,489.6,616.5,489.4,617.2z M530.1,612.4c-1,2.4-2.9,3.8-4.2,2.9c-1-0.7-1.7-1.9-2.4-3.1 c-0.2-0.5-0.1-1.7,0.2-2.4c0.3-0.7,1.1-1.5,1.6-1.6c0.9-0.2,1.8,0.1,2.5,0.1c0.8,0.3,1.4,0.5,2,0.8 C530.5,609.3,530.6,611.1,530.1,612.4z M535,609.9l0-1l0.7,0.3L535,609.9z M552,361.6c-0.1-0.1-0.3-0.3-0.3-0.5 c0-0.2,0.2-0.4,0.4-0.6c0.1,0.2,0.3,0.3,0.3,0.5C552.3,361.1,552.1,361.3,552,361.6z M595.9,598.6c-0.3,0.1-0.7,0.3-0.8,0.1 c-0.1-0.2,0-0.7,0-1.1c0.3-0.1,0.7-0.3,0.8-0.1C596,597.7,595.9,598.3,595.9,598.6z M608.4,364.6c-0.6,0.4-0.8,0.1-0.5-0.7 c0.1-0.2,0.3-0.3,0.5-0.5c0.1,0.2,0.3,0.3,0.3,0.5C608.7,364.1,608.5,364.5,608.4,364.6z M618.1,594.5l-0.3-0.7l0.7-0.2 L618.1,594.5z M624.5,363.2c-0.2,0-0.3-0.8-0.4-1.2c0.4-0.3,0.8-0.9,1.2-0.9c0.2,0,0.3,0.8,0.4,1.2 C625.3,362.6,624.8,363.2,624.5,363.2z M630.5,365c-0.2-0.1-0.3-0.6-0.3-0.8c0.2-0.5,0.6-1.2,0.9-1.5c0.5-0.3,1-0.4,1.5-0.3 c1.1,0.1,2.2,0.4,3.4,0.6C634.2,365,632.4,366.5,630.5,365z M650.2,359.9l0.5-0.6l0.1,0.7L650.2,359.9z M690.5,355.9 c-0.5,0.1-1,0.3-1.6,0.4c-0.3,0-0.6,0-0.9-0.2c-0.2-0.1-0.4-0.3-0.4-0.6c0-0.7,0.4-1.2,1-1.4c1.3-0.4,2,0.5,2.8,1.2 C691.1,355.6,690.8,355.7,690.5,355.9z M692.6,355.3c-0.2,0-0.3,0.1-0.5,0.1c-0.1,0-0.3,0-0.4-0.1c0.5-0.4,1-0.8,1.6-1 C693,354.7,692.8,355,692.6,355.3z M698.3,353.9c-0.1-0.2-0.4-0.3-0.5-0.5c0.1,0,0.2,0,0.3,0c0.4,0,0.5,0.4,0.4,0.9 C698.5,354.2,698.4,354,698.3,353.9z M706.4,354.3c-0.7,0.5-1.4,0.6-2.1,0.9c-0.3-0.5-0.8-0.9-0.7-1.4c0.1-0.5,0.6-1.3,1-1.5 c0.7-0.3,1.4-0.3,2.1-0.3c0.2,0,0.4,0.4,0.4,0.6C706.8,353.3,706.7,354.1,706.4,354.3z M713.9,352.3c-0.1,0-0.3,0-0.4,0.1 c-0.3,0-0.7-0.1-0.7-0.3c-0.1-0.4,0.3-1.1,0.5-1.7c0.4,0.1,1,0.1,1,0.4C714.4,351.1,714.1,351.8,713.9,352.3z M720.8,351.6 c-0.6,0-1.3,0.1-1.9,0.1c0.4-0.6,1-0.7,1.6-0.8c0.4,0,0.6,0.3,0.6,0.6C721,351.6,720.9,351.6,720.8,351.6z M721.3,344.6l-0.1-0.6 l0.5,0.1L721.3,344.6z M763.9,559.7c0-0.4,0-0.8-0.1-1.2c0.1,0.2,0.2,0.5,0.1,0.8C764,559.4,764,559.6,763.9,559.7z M764.1,560.4 c0.5,0.1,1,0.3,1.5,0.4C764.9,561.1,764.4,561,764.1,560.4z M767.4,559.1c-0.5,0.5-1,1-1.4,1.5c0.2-0.7,0.4-1.4,0.7-2 c0.3-0.6,0.8-1,1.2-1.5c0,0.3,0.1,0.6,0,1C767.8,558.4,767.6,558.9,767.4,559.1z M769,347.8c-0.5-0.5-1-1.1-1.6-1.7 c0.2-0.2,0.5-0.4,0.7-0.4c2.3-0.3,4.6,0.2,6.8-0.9c1.1-0.5,2.2-0.9,3.3-1.3c-1,0.6-1.9,1.3-2.9,2.4c-0.6,0.6-1.2,1.3-1.8,1.8 C771.8,349,770.3,349,769,347.8z M773.8,554.6c-0.3,0.7-0.7,1.4-1,2c0-1-0.4-2.1,0.9-2.9C773.6,553.7,773.8,554.4,773.8,554.6z M771.9,562.9c-0.3,0-0.4-1.4-0.3-2.1c0.2-1.3,0.7-2.5,1.1-3.8c1.6,0.8,3,1.3,4.7-2c1.2-2.3,1.7-2.1,2.1,0.6 c0.1,1.1,0.3,2.1,0.4,3.2C777.5,562.9,774.7,563.3,771.9,562.9z M791.8,553.3c-2.3,0.5-4.4,1.4-6.3,4.3c-2.4,3.6-2.6,3.5-5.5,1.2 c0.9-3.2,2.1-5.8,4.8-6.7c1.9-0.7,3.8-2,5.7-2.9c0.6-0.3,1.3-0.2,1.8,0.2c0.4,0.3,0.8,1.2,0.7,1.9 C792.9,552,792.1,553.3,791.8,553.3z M782.9,342.5c-0.4-0.1-0.9-0.1-1.3-0.1c3.7-1,7.3-1.7,11-3.4c1.1-0.5,2-0.1,2.5,1.1 c0.2,0.5,0.5,1,0.8,1.4c-0.5,0.1-1,0.2-1.5,0.4C790.3,343.3,786.5,343.3,782.9,342.5z M795.9,558.2c0-0.1,0-0.3,0-0.4 c0.1,0.4,0.1,0.7,0.2,1.1C796,558.6,795.9,558.4,795.9,558.2z M818.6,553.9c-2.5-0.1-4.9,0.2-7.5,2.5c-1.1,1-2.5,1.3-3.8,1.6 c-1.9,0.4-3.8,0.4-5.8,0.6c-0.7-0.9-1.5-2.1-2.4-2.9c-1.1-1.1-2.2-0.2-3.2,1.3c-0.1-0.8-0.2-1.6-0.2-2.4c0.1-2.6,1-4.1,3.1-5.2 c1-0.5,2-1,2.9-1.1c5-0.5,10.1-1,15.1-1.1c2.8-0.1,5.4,0.6,8,1c0.4,2,0.8,3.9,1.2,5.7C823.5,553.9,821,554.1,818.6,553.9z M856.2,552c-1.9,0.4-3.8,0.3-5.7,0.4c-8.1,0.5-16.3,1-24.4,1.5c0.6-1.7,1.1-3.4,1.8-5c0.3-0.8,0.9-1.9,1.4-2.1 c1.6-0.8,3.2-1.5,4.7-1.6c0.8,0,1.3,1.4,1.9,2.2c2.5-1.5,5-3,7.5-4.5c0.3-0.2,0.6-0.6,0.9-0.6c1.6-0.5,3.2-1.1,4.8-1.3 c1.3-0.1,2.4,0.5,2.7,2.3c0.2,1.1,0.6,2.9,1.6,1.9c2.7-2.7,4.7,1.4,7.3-1.7c1.4-0.1,1.8,1.5,2.3,2.7 C861.3,550,858.8,551.5,856.2,552z M863.4,546.3c0.6-0.3,1.1-0.2,1.4,0.4C864.3,546.5,863.9,546.4,863.4,546.3z M883.1,548.4 c-5.4,1-10.9,2-16.3,2.9c-1.2,0.2-1.7-1.2-1.7-4.5c2.4-1.9,4.8-3.7,7.4-3.6c3.7,0.1,7.6-1.2,11.4-2.5c2.3-0.8,4.3-0.4,5.8,1.3 C888.1,545.7,885.8,547.8,883.1,548.4z M919.1,540c-1.1,1.2-2.5,2.9-3.5,3c-6.3,0.3-12.8,1.6-19.3,3.5c-1.7,0.5-3.1-0.3-4.2-1.4 c-0.8-0.9-1.5-2-2.3-3c1.2-1.9,2.6-3.5,4.3-3.6c2.2-0.2,4.6-0.6,6.5,0c3.3,1,6.6,0.5,10.3-1.6c3-1.7,5.6-0.3,8,1 C919.4,538,919.3,539.8,919.1,540z M930.9,539.2c-1.1,1.8-2.3,3.6-3.6,5.2c-0.4,0.5-1.2,0.4-1.8,0.5c-1.2-0.2-2.1-1.8-1.6-3.3 c0.4-1.1,1.2-2.7,1.9-3c1.5-0.8,3.1-1,4.6-1.1C930.7,537.4,931.1,538.9,930.9,539.2z M966.9,535.2c-6.5,2-13,3.7-19.5,5.4 c-0.6,0.2-1.2-0.2-1.8-0.4c-1-0.3-1.8-2.1-1.6-3.8c0.2-1.6,1.6-3.6,2.8-4.1c3.7-1.4,7.2-1.7,10.5-0.9c4.1,1,8.5,0.9,12.9,0.4 C969,533,967.9,534.9,966.9,535.2z M981.6,529.5c-0.1-0.2,0.1-0.9,0.3-1.1c1.2-1.3,2.4-1.3,3.4-0.6c0.2,0.1,0.2,0.6,0.3,1 C984.9,530.3,982.2,530.8,981.6,529.5z M1051.5,472.2c-0.2,0.2-0.5,0.2-0.7,0.3c0-0.3,0-0.8,0.1-1c0.2-0.2,0.5-0.2,0.7-0.3 C1051.6,471.5,1051.6,472,1051.5,472.2z"></path> </g> </g> </g> <g id="PRINT_1"> </g> </svg> 